<svg width="24" height="25" viewBox="0 0 24 25" fill="none" xmlns="http://www.w3.org/2000/svg">
<path d="M12 4.5957C12.4142 4.5957 12.75 4.93149 12.75 5.3457V11.5957H19C19.4142 11.5957 19.75 11.9315 19.75 12.3457C19.75 12.7599 19.4142 13.0957 19 13.0957H12.75V19.3457C12.75 19.7599 12.4142 20.0957 12 20.0957C11.5858 20.0957 11.25 19.7599 11.25 19.3457V13.0957H5C4.58579 13.0957 4.25 12.7599 4.25 12.3457C4.25 11.9315 4.58579 11.5957 5 11.5957H11.25V5.3457C11.25 4.93149 11.5858 4.5957 12 4.5957Z" fill="#272C3A"/>
</svg>
