<svg width="16" height="17" viewBox="0 0 16 17" fill="none" xmlns="http://www.w3.org/2000/svg">
<path d="M15 2.17578C15.2652 2.17578 15.5196 2.28114 15.7071 2.46867C15.8946 2.65621 16 2.91056 16 3.17578V13.1758C16 13.441 15.8946 13.6954 15.7071 13.8829C15.5196 14.0704 15.2652 14.1758 15 14.1758H1C0.734784 14.1758 0.48043 14.0704 0.292893 13.8829C0.105357 13.6954 0 13.441 0 13.1758V3.17578C0 2.91056 0.105357 2.65621 0.292893 2.46867C0.48043 2.28114 0.734784 2.17578 1 2.17578H15ZM15 3.88278L8.715 10.1778C8.62219 10.2715 8.51175 10.3459 8.39006 10.3968C8.26836 10.4476 8.13781 10.4739 8.00592 10.4741C7.87402 10.4743 7.7434 10.4484 7.62156 10.3978C7.49972 10.3473 7.38908 10.2732 7.296 10.1798L1 3.88278V12.4678L4.146 9.32178C4.19249 9.27529 4.24768 9.23842 4.30842 9.21326C4.36916 9.1881 4.43426 9.17515 4.5 9.17515C4.56574 9.17515 4.63084 9.1881 4.69158 9.21326C4.75232 9.23842 4.80751 9.27529 4.854 9.32178C4.90049 9.36827 4.93736 9.42346 4.96252 9.4842C4.98768 9.54494 5.00063 9.61004 5.00063 9.67578C5.00063 9.74153 4.98768 9.80663 4.96252 9.86736C4.93736 9.9281 4.90049 9.98329 4.854 10.0298L1.706 13.1758H14.293L11.146 10.0298C11.0521 9.93589 10.9994 9.80856 10.9994 9.67578C10.9994 9.54301 11.0521 9.41567 11.146 9.32178C11.2399 9.22789 11.3672 9.17515 11.5 9.17515C11.6328 9.17515 11.7601 9.22789 11.854 9.32178L15 12.4688V3.88278ZM14.292 3.17578H1.707L8.005 9.47378L14.292 3.17578Z" fill="white"/>
</svg>
