<svg width="376" height="475" viewBox="0 0 376 475" fill="none" xmlns="http://www.w3.org/2000/svg">
<path d="M181.403 126.226L181.15 202.328L193.638 202.369L193.891 126.268L181.403 126.226Z" fill="white" fill-opacity="0.25"/>
<path d="M360.294 115.983C350.857 93.3767 337.343 73.0782 320.136 55.6437C302.919 38.2023 282.867 24.5077 260.535 14.9389C237.403 5.02597 212.834 0 187.51 0C162.185 0 137.616 5.02597 114.484 14.9389C92.1524 24.5077 72.0998 38.2023 54.883 55.6437C37.6731 73.0782 24.162 93.3802 14.7255 115.983C4.95488 139.382 0 164.234 0 189.847C0 215.46 4.95488 240.312 14.7255 263.711C24.162 286.317 37.6766 306.616 54.883 324.05C72.0998 341.492 92.1524 355.186 114.484 364.755C137.616 374.668 162.185 379.694 187.51 379.694C212.834 379.694 237.403 374.668 260.535 364.755C282.867 355.186 302.919 341.492 320.136 324.05C337.346 306.616 350.857 286.314 360.294 263.711C370.064 240.312 375.019 215.46 375.019 189.847C375.019 164.234 370.064 139.382 360.294 115.983ZM229.964 359.246C244.693 345.468 253.207 333.775 267.146 311.499L262.623 297.944C247.187 322.618 228.798 346.747 207.256 363.469C202.76 363.99 198.213 364.334 193.623 364.498L193.898 241.997L181.41 241.97L181.135 364.491C178.731 364.4 176.344 364.261 173.967 364.074C148.587 344.401 125.949 324.349 111.61 298.291L106.043 312.889C120.079 333.539 133.006 346.476 150.01 360.442C126.837 355.21 105.406 345.238 86.7626 331.582L187.781 91.1488L289.847 329.49L292.564 328.329C274.248 342.639 253.026 353.302 229.964 359.246ZM301.507 320.845L187.652 54.9729L75.2871 322.413C38.463 290.339 15.1013 242.807 15.1013 189.847C15.1013 101.34 80.3428 27.9939 164.638 16.6212C140.389 33.9896 119.874 56.0608 104.585 81.4027C84.7132 114.339 74.2258 152.044 74.2467 190.438C74.2606 212.506 79.1702 238.15 85.931 259.018L93.586 242.335C87.2254 222.707 86.7487 211.195 86.7348 190.431C86.693 121.989 122.686 57.7709 181.351 20.3785L181.125 47.9866L193.613 48.0908L193.839 20.6148C252.327 57.969 288.243 122.017 288.284 190.309C288.298 211.001 289.861 220.333 283.57 239.902L290.713 254.799C297.401 233.993 300.786 212.293 300.772 190.299C300.748 151.905 290.212 114.214 270.302 81.3019C254.982 55.9774 234.438 33.9305 210.168 16.5934C294.565 27.8723 359.918 101.27 359.918 189.85C359.918 241.952 337.308 288.802 301.51 320.849L301.507 320.845Z" fill="white" fill-opacity="0.25"/>
<path d="M148.671 212.787L142.933 228.776H231.314L225.002 212.787H148.671Z" fill="white" fill-opacity="0.25"/>
<g clip-path="url(#clip0_123_344)">
<path d="M34.4475 412.304H26.8722L7.59707 468.395L0 469.518V473.856H20.5606V469.518L12.4747 468.333L16.925 454.957H37.0149L41.4761 468.601L33.3395 469.623V473.859H60.0668V469.623L53.7407 468.869L34.4475 412.304ZM18.5328 450.13L27.0605 424.507L35.4397 450.13H18.5328Z" fill="white" fill-opacity="0.25"/>
<path d="M106.008 412.304H98.4327L79.1576 468.395L71.5605 469.518V473.856H92.1211V469.518L84.0352 468.333L88.4856 454.957H108.575L113.037 468.601L104.9 469.623V473.859H131.627V469.623L125.301 468.869L106.008 412.304ZM90.0933 450.13L98.621 424.507L107 450.13H90.0933Z" fill="white" fill-opacity="0.25"/>
<path d="M180.973 412.597H171.399V417.055L179.123 418.08L165.211 459.237L151.052 417.924L159.403 417.055V412.597H149.224H136.394H131.998V416.935L138.226 417.612L158.917 474.264H165.323L184.609 418.018L192.054 416.935V412.597H186.47H180.973Z" fill="white" fill-opacity="0.25"/>
<path d="M213.091 412.597H205.443V416.935L213.214 417.783C213.366 425.59 213.37 433.437 213.37 441.226V445.234C213.37 453.143 213.37 460.99 213.218 468.674L205.447 469.521V473.859H233.3V469.521L225.497 468.681C225.345 460.87 225.341 453.016 225.341 445.202V441.229C225.341 433.317 225.341 425.47 225.493 417.783L233.3 416.942V412.597H213.095H213.091Z" fill="white" fill-opacity="0.25"/>
<path d="M290.297 468.967H269.733C269.577 461.149 269.573 453.208 269.573 444.839H281.556L282.682 452.799H287.447V431.93H282.682L281.483 439.98H269.57C269.57 432.401 269.581 424.887 269.729 417.518H288.454L290.398 428.762H296.858L296.21 412.597H249.672V416.935L257.443 417.783C257.595 425.59 257.598 433.437 257.598 441.226V445.234C257.598 453.143 257.598 460.99 257.446 468.674L249.675 469.521V473.859H298.061L298.709 457.694H292.249L290.301 468.97L290.297 468.967Z" fill="white" fill-opacity="0.25"/>
<path d="M375.02 412.597H367.17H361.876H351.74V416.935L361.876 418.127V454.352L331.495 412.597H314.084V416.968L320.548 417.652L321.642 419.151V468.402L313.791 469.517V473.855H321.642H326.936H337.071V469.517L326.936 468.268V426.43L361.742 474.264H367.17V461.627V418.101L375.02 416.935V412.597Z" fill="white" fill-opacity="0.25"/>
</g>
<defs>
<clipPath id="clip0_123_344">
<rect width="375.019" height="61.9606" fill="white" transform="translate(0 412.304)"/>
</clipPath>
</defs>
</svg>
