<svg width="850" height="504" viewBox="0 0 850 504" fill="none" xmlns="http://www.w3.org/2000/svg">
<g clip-path="url(#clip0_1_744)">
<path d="M378.289 -1.07227C379.138 0.200521 379.986 1.47331 381.259 2.74609C382.532 3.59471 383.805 4.8677 385.078 6.14062C388.048 7.4135 388.048 7.41365 390.17 9.53516C391.018 9.95946 391.443 10.8081 392.291 11.2324C392.707 11.6488 392.716 12.0657 392.716 12.0811C393.132 12.4975 393.14 12.9143 393.14 12.9297C393.564 12.9297 394.413 13.7783 395.262 13.7783C396.11 13.7786 396.534 14.6269 397.383 14.627C398.656 15.8998 399.08 17.1731 398.656 18.8701C397.808 19.7187 397.383 20.9922 396.534 21.8408C397.807 25.6595 399.08 29.4782 397.808 33.2969C398.232 34.1454 398.656 34.9943 398.656 35.8428C399.929 37.1157 401.626 37.1157 402.899 38.3887C403.748 39.6615 404.172 40.9347 404.172 42.6318C405.021 46.875 405.869 50.6944 406.718 54.9375C407.566 59.1806 408.415 62.9996 408.415 66.8184V68.0908C408.839 69.788 408.84 71.4854 408.84 73.1826V74.8799C409.264 77.0014 409.264 79.5474 409.264 81.6689V94.3984C409.264 99.4902 408.415 104.158 408.415 109.25C407.567 111.796 407.566 114.342 407.566 116.888V117.736C407.566 119.858 406.718 122.404 406.718 124.949C406.293 127.495 406.293 130.042 405.869 132.163C405.445 135.557 405.869 138.951 405.869 142.346V250.203C410.966 246.519 416.064 243.015 421.161 239.511C425.828 236.541 430.496 233.146 434.739 230.176C437.709 228.054 440.68 225.932 443.65 223.811C444.499 222.962 445.348 222.538 446.196 221.689C447.894 220.417 451.288 218.295 451.288 218.295V214.476C450.864 214.051 450.015 213.627 450.015 213.627V212.354C450.015 211.93 450.439 211.93 450.863 211.93C452.561 212.354 453.41 211.081 454.683 210.232V206.414H458.077C458.501 205.99 458.926 205.141 458.926 205.141C459.774 204.292 460.198 203.444 461.047 203.02C461.471 202.171 462.32 201.746 462.32 200.897C464.018 195.382 465.714 190.289 467.836 184.773C468.26 183.925 468.261 183.076 469.109 182.228V181.379C470.382 175.863 471.23 170.347 472.079 164.831C472.928 159.315 473.776 153.798 474.625 148.282C475.049 146.585 475.474 145.312 475.474 143.615V141.918C475.049 140.221 475.474 138.523 476.322 137.25C476.747 136.402 477.595 135.977 478.02 135.129C478.868 135.553 478.868 135.978 478.868 135.978C478.868 136.401 479.712 136.824 479.717 136.826C480.565 137.25 481.414 137.675 482.263 137.675C483.535 138.523 484.808 138.523 486.081 138.523C487.354 138.523 488.203 139.372 489.476 139.372C490.324 139.372 491.173 139.796 492.021 140.221C492.87 141.069 493.719 141.069 494.567 140.221C494.984 139.804 495.4 139.796 495.416 139.796C497.962 140.22 498.387 140.645 498.387 143.19C498.811 143.615 499.659 143.615 499.659 144.464C500.083 145.312 500.508 145.737 501.356 146.585C501.781 147.009 502.629 147.858 503.054 148.707C503.902 149.131 503.902 149.98 503.902 150.828C503.902 152.95 504.752 154.647 506.024 155.92C506.873 155.92 507.722 155.071 508.57 155.071C509.419 155.495 509.843 156.344 509.843 156.769C511.54 160.587 513.237 164.406 514.935 168.649C518.329 177.984 520.451 187.319 522.148 196.654C523.421 202.595 524.27 208.111 524.694 214.052C525.543 219.992 525.967 225.933 525.967 231.873V245.026C525.967 250.967 525.118 257.332 525.118 263.696C524.694 267.515 524.27 271.334 523.846 275.152V382.788C525.249 382.343 527.635 381.66 527.656 381.654L530.627 380.806C532.324 380.381 533.597 379.957 535.294 379.533C537.416 379.109 539.538 378.26 541.659 377.836C542.508 377.836 542.932 377.411 543.78 377.411C545.902 376.987 547.6 376.138 549.297 375.714C550.57 375.714 551.419 374.865 552.691 374.865C555.237 374.017 557.359 373.593 559.904 372.744C560.753 372.32 562.026 371.896 562.875 371.896C565.421 371.471 567.967 370.622 570.513 369.773C571.785 369.773 572.634 368.925 573.907 368.925C574.756 368.924 576.029 368.076 576.877 368.076C579.423 367.228 581.544 366.804 583.666 365.955H584.515C587.485 365.106 590.031 364.258 593.001 363.409C595.122 362.561 597.244 362.136 599.365 361.287C600.638 360.863 601.912 360.015 603.185 360.015C604.458 359.59 605.306 358.741 606.579 358.741H607.852C609.549 358.317 610.822 357.469 612.52 357.469C612.944 357.469 613.792 356.62 614.641 356.62V354.074C614.641 353.65 615.065 353.649 615.065 353.649H615.489C615.914 353.649 616.338 353.65 616.338 353.226C617.187 353.65 617.187 354.074 617.187 354.074C617.611 353.65 618.036 352.801 618.46 352.801H620.157V351.528C620.582 351.104 621.006 350.255 621.006 349.406C621.43 347.709 622.279 346.436 622.703 344.739C623.127 344.315 623.552 343.466 623.552 343.466V325.221L624.4 324.372H624.824L626.098 325.646C626.522 326.07 626.946 326.069 626.946 326.069C627.795 326.494 628.219 326.918 629.067 327.342C629.484 327.759 629.902 327.766 629.916 327.767H630.341C631.189 327.342 631.19 327.342 632.038 328.19V329.464C632.038 329.888 632.887 330.312 632.887 330.312H634.584L639.676 335.404C640.1 336.253 640.948 337.102 641.797 337.95C642.221 338.375 642.646 339.223 643.07 339.647C644.343 340.92 645.192 342.193 646.04 343.466C647.313 344.739 648.162 346.436 649.011 347.709C649.859 348.982 650.708 350.255 651.557 351.952C651.981 352.801 652.83 354.074 653.254 354.923C653.678 355.347 654.526 356.196 654.526 357.044C656.224 360.014 657.497 362.984 658.346 366.379C659.194 368.925 659.619 371.046 660.043 373.168C660.467 374.441 660.892 375.29 660.892 376.562V378.685C661.74 380.382 661.74 381.655 661.74 383.352V445.727C661.74 446.469 661.74 446.562 662.024 446.573L662.164 446.575V477.766C662.728 477.852 663.285 477.934 663.832 478.002C671.045 479.275 678.683 480.548 686.32 481.821C688.018 482.246 690.14 482.67 691.837 482.67C693.534 483.094 695.655 483.519 697.353 483.519C699.05 483.943 701.172 484.367 702.869 484.367C704.991 484.791 706.688 485.216 708.385 485.216C710.082 485.64 711.779 486.064 713.477 486.064C715.174 486.489 716.871 486.913 718.568 486.913C719.841 486.913 755.908 492.853 803.432 500.915H710.082C708.385 500.491 706.687 500.067 704.99 499.643C702.391 498.9 699.467 498.158 696.787 497.415L694.523 496.778C691.843 496.036 688.919 495.293 686.32 494.551C682.926 493.702 679.956 492.853 676.985 492.005C671.588 490.463 666.542 489.269 662.164 488.109V497.068H660.892V487.77C660.882 487.767 660.871 487.764 660.861 487.762C658.74 486.913 656.619 486.489 654.497 486.064C653.648 485.64 652.8 485.216 651.951 485.216H648.98V499.218H615.036V494.975C615.884 494.551 616.308 494.551 616.732 494.551H622.249C621.401 494.127 621.4 493.278 621.4 492.854V490.308C620.976 490.308 620.127 489.459 619.703 489.459C619.279 489.035 618.431 488.61 618.431 488.186V481.396C618.855 479.275 618.854 476.729 618.854 474.184V472.062C619.276 471.22 620.948 469.961 620.976 469.94V464.849H615.884V463.575H627.341V461.454H628.613C628.195 461.036 628.602 460.617 628.613 460.605V448.725H630.311C630.727 449.141 631.144 449.149 631.159 449.149V458.908H634.554V460.605H646.011V463.575C646.011 463.575 645.586 463.575 645.162 463.575C644.313 464 643.04 464 641.343 464H634.979V469.092C636.24 469.933 637.085 472.025 637.1 472.062C637.524 473.334 637.524 474.183 637.524 475.456C637.949 476.729 637.948 477.578 637.948 478.427V487.337C637.948 488.186 637.1 489.034 636.251 489.034C635.402 489.883 634.978 489.883 634.13 489.883C634.55 489.883 634.97 490.715 634.979 490.731C635.403 491.58 635.402 492.005 635.402 492.854V494.551H642.191V483.094C642.616 482.669 643.04 481.821 643.04 481.396C643.041 480.972 643.889 480.123 643.889 479.699C644.313 478.851 644.738 478.426 645.162 478.002L646.011 477.153C646.011 476.729 646.859 476.729 646.859 476.729C646.859 476.305 647.708 476.305 647.708 476.305H653.648C655.782 476.609 658.354 477.132 660.892 477.561V445.302H659.618C659.194 444.878 659.194 444.453 659.194 444.453C658.77 444.453 658.77 443.604 658.77 443.604V442.332C659.188 441.913 659.607 441.907 659.618 441.907V408.811H657.921C656.648 408.811 656.648 408.81 656.224 407.962V405.841C654.951 404.568 653.678 402.871 652.829 401.598C652.405 401.173 651.557 400.325 651.557 399.9C651.459 399.753 651.36 399.613 651.262 399.476H652.405C652.825 399.056 653.661 399.052 653.678 399.052H654.526C654.945 398.633 654.951 398.215 654.951 398.203V383.352C654.527 382.079 654.103 380.381 654.103 379.108C654.102 377.836 653.678 376.987 653.678 376.139C653.253 375.29 652.829 374.441 652.829 373.593V373.168H652.405C651.981 373.592 651.132 374.016 650.708 374.017C649.011 374.865 647.737 375.29 646.04 376.139C644.767 376.563 643.918 376.987 642.646 377.411C642.226 377.831 641.391 378.251 641.373 378.26C641.373 378.68 640.541 379.1 640.524 379.108C639.677 379.956 638.828 380.804 637.98 381.651C637.401 381.06 637.052 380.651 636.705 379.957C636.281 379.533 635.857 379.109 635.433 379.108H634.584C633.311 377.836 631.614 376.987 630.341 376.139C629.492 375.29 628.219 374.865 627.37 374.017C626.531 374.016 626.522 373.602 626.521 373.593C625.673 373.168 625.673 372.32 625.673 371.896V371.047H625.249C623.976 371.471 622.703 372.319 621.43 372.319H620.581C619.732 372.744 618.884 373.168 618.035 373.168C616.762 373.592 615.49 374.441 614.217 374.441C613.368 374.866 612.52 375.29 611.671 375.29C610.398 375.29 609.549 376.139 608.276 376.139C606.155 376.563 604.033 377.412 601.911 377.836C599.365 378.684 597.244 379.108 594.698 379.957C593.001 380.381 590.879 381.23 589.182 381.654C587.484 382.079 585.363 382.927 583.666 383.352C583.242 383.776 582.818 383.776 582.394 383.776C581.545 384.201 581.12 384.2 580.695 384.2C580.271 384.624 579.423 384.625 578.999 384.625C577.726 385.049 576.453 385.897 575.18 385.897H574.331C574.331 386.322 574.332 387.17 574.756 387.595V388.02C574.756 388.444 575.604 388.868 575.604 388.868H576.877C577.297 388.868 577.302 388.035 577.302 388.02V387.171H582.394C582.818 387.171 583.242 387.595 583.242 387.595C583.666 388.019 584.09 388.868 584.938 389.717C585.362 390.14 585.786 390.985 585.788 390.989V391.414C585.788 391.838 585.363 391.838 585.363 391.838H584.515V396.506H588.333C589.181 396.93 589.606 397.354 589.606 397.778C590.031 398.203 590.455 399.051 590.455 399.476V427.48C590.879 427.905 590.88 428.754 590.88 428.754V431.3C590.88 431.724 590.879 432.148 590.455 432.148V432.572C590.455 432.988 590.047 432.997 590.031 432.997H589.182C588.765 432.58 588.758 432.163 588.758 432.148H587.909V432.572C587.909 433.845 588.758 435.542 588.758 436.815V438.089C589.182 439.362 589.606 440.634 589.606 441.907C589.606 443.18 590.455 444.877 590.455 446.15C590.879 448.696 591.728 451.242 592.152 453.788C592.577 454.637 593.001 455.91 593.001 456.759C593.849 458.88 594.274 461.426 594.698 463.547C595.122 464.395 595.547 465.669 595.547 466.941V472.458C595.971 473.731 596.395 475.004 596.396 476.276C596.82 479.246 597.668 481.793 598.093 484.763C598.517 486.884 598.941 488.582 599.365 490.703C599.787 492.813 600.63 496.603 600.639 496.644H589.182C588.758 496.219 588.758 495.371 588.758 494.522C588.333 491.977 587.91 489.854 587.485 487.309C587.167 485.399 586.849 483.729 586.53 481.938L585.894 478.253C585.575 476.463 585.257 474.791 584.938 472.882C584.514 470.336 584.09 468.215 583.666 465.669C583.242 463.972 582.394 461.85 582.394 460.153C581.969 459.305 581.969 458.456 581.969 457.607C581.544 456.335 581.12 454.637 581.12 453.364C580.696 452.091 580.272 450.394 580.271 449.121C580.271 447.424 579.423 445.726 579.423 444.029C579.423 442.332 578.574 440.21 578.574 438.513C578.15 436.391 577.302 434.694 577.302 432.572H573.907V496.644H573.059V494.946H567.118L566.693 495.371V500.463H558.632V491.128H563.299V497.068H564.147V494.946H567.118V491.128H563.299V490.703H567.118V484.339L567.542 483.914V481.793H563.299V480.944H567.542V475.004L566.693 475.428V472.033H563.299V470.761H566.693C567.966 470.761 567.967 470.76 567.967 469.487V464.82L568.391 465.669V462.698H563.299V470.761H559.48V462.698C559.481 462.683 559.489 462.283 559.904 462.698H563.299V460.577H567.967C568.382 460.577 568.39 460.169 568.391 460.153V452.091H563.299V450.394H569.239V442.332C569.664 441.908 569.239 441.907 569.239 441.907H563.299V441.059H569.664V439.361H563.299V431.724L562.875 431.3H559.48C559.904 431.3 559.904 430.875 559.904 430.875V430.451C559.48 430.027 559.056 430.026 559.056 430.026C557.783 430.026 557.783 430.027 557.783 431.3C557.359 431.724 557.783 431.724 557.783 431.724H559.056C558.631 432.572 558.632 432.997 558.632 433.846C557.783 435.967 557.358 438.513 556.51 440.635C556.086 441.483 555.661 442.756 555.661 443.604C554.812 445.302 554.388 446.999 553.964 448.696C553.54 450.818 552.691 452.515 552.267 454.637C551.418 456.334 550.994 458.031 550.569 459.729C550.145 461.426 549.721 462.699 549.297 464.396C548.873 467.366 548.023 469.912 547.175 472.458C546.751 474.155 546.327 475.428 545.902 477.125C545.054 478.822 544.629 480.52 544.205 482.217C543.357 484.763 542.932 486.884 542.083 489.006C541.234 491.552 540.811 493.674 539.962 496.22H524.268C524.268 496.364 524.27 496.506 524.27 496.646V504.707H520.451V503.858C520.179 501.412 520.082 498.791 520.047 496.22H460.803C461.445 498.643 462.095 501.053 462.744 503.435V504.283H447.045C445.348 496.646 443.226 489.432 441.528 481.794C440.255 475.429 438.559 468.64 436.861 462.275C436.437 461.427 436.437 460.578 436.013 459.729C434.74 459.305 433.466 459.306 432.193 459.306C429.223 459.306 426.253 458.457 423.283 458.457C420.313 458.033 416.918 457.184 413.948 457.184C410.978 456.759 407.583 456.335 404.613 456.335C401.88 455.788 398.969 455.418 396.11 455.11V455.49C396.11 456.339 396.958 456.763 396.959 457.188C397.808 458.46 397.808 459.734 397.808 461.431V501.124C399.349 501.238 400.92 501.312 402.491 501.312C407.159 501.737 412.251 502.586 416.918 502.586C421.161 503.01 424.98 503.435 428.799 503.435H397.808V512.773H393.988V503.435H371.092C371.516 498.343 372.365 492.826 373.214 487.734C374.062 482.643 374.911 477.127 375.76 472.035V470.338C373.638 469.914 363.455 469.064 358.787 469.064H357.09V470.338C356.241 475.005 355.817 479.249 354.969 483.916C354.12 489.432 353.271 494.524 352.423 500.04C352 501.308 351.998 503.838 351.998 503.858H289.199C289.199 503.858 289.624 503.01 290.048 503.01C290.896 502.585 291.745 502.586 292.594 502.586C293.442 502.586 294.715 503.01 295.988 502.586C295.564 501.313 296.413 500.464 297.686 500.04C298.527 499.619 300.205 498.363 300.231 498.343H306.172C306.596 498.343 307.021 497.494 307.445 497.494H312.537C312.961 497.495 313.385 498.343 313.81 498.343V497.494C315.507 492.402 316.78 486.886 318.478 481.794V476.278C318.902 472.035 318.901 468.216 318.901 463.973V436.393C319.326 432.149 319.326 428.33 319.326 424.087V413.903C319.75 407.114 320.175 399.901 320.175 393.112C320.599 392.688 320.599 391.839 320.175 391.415C319.326 390.991 318.477 390.991 317.629 390.991C313.81 390.567 309.991 389.718 306.172 389.294C304.899 388.87 304.051 388.445 304.051 387.597C304.051 387.173 303.203 386.324 303.202 385.899C288.311 383.869 273.69 381.569 259.123 379.645C259.917 382.895 260.723 386.133 261.603 389.298C263.3 396.087 264.997 403.3 266.694 410.089C268.392 417.302 270.513 424.94 272.21 432.577C273.907 438.942 275.181 444.882 276.878 451.247C278.575 458.036 279.848 464.825 281.545 471.614C282.394 474.584 282.817 477.131 283.666 480.101C285.363 488.163 287.485 495.8 289.183 503.862C290.031 507.257 290.88 511.076 291.729 514.895H-130.465V481.374C-126.646 476.707 -123.251 472.039 -119.433 467.371C-118.16 465.674 -116.462 463.553 -115.189 461.855V461.007H-119.009C-120.706 461.431 -122.403 461.431 -124.101 461.431H-129.616V396.936C-126.222 393.965 -123.251 391.419 -120.281 388.449C-117.311 385.903 -114.341 382.933 -111.371 380.387L-109.674 378.689C-108.825 378.689 -108.825 377.841 -108.825 377.841C-109.25 376.568 -110.098 375.295 -110.522 374.022C-110.947 372.75 -111.795 371.476 -111.795 370.203C-111.371 369.355 -110.946 368.93 -110.946 368.506C-109.673 366.809 -108.401 365.536 -107.128 363.839C-107.128 363.415 -106.279 362.99 -106.279 362.565V361.293C-106.704 359.596 -107.552 358.323 -108.4 357.05C-111.371 351.958 -113.917 347.29 -116.887 342.198C-118.16 339.652 -119.857 337.531 -121.13 334.985C-121.554 334.561 -121.979 334.136 -121.979 333.712C-122.386 334.526 -122.403 334.559 -122.403 334.561C-122.828 335.833 -122.827 337.107 -122.827 338.38C-123.676 341.774 -124.1 345.593 -124.524 348.987C-124.949 352.382 -125.374 355.776 -125.798 359.171C-126.222 362.99 -127.071 367.233 -127.495 371.052C-127.919 373.173 -128.768 375.72 -128.768 378.266V335.409C-128.343 332.439 -127.919 329.469 -127.495 326.499V322.256C-127.919 321.407 -128.768 319.285 -128.768 319.285V284.491L-127.919 283.643C-124.949 281.097 -122.403 278.127 -119.009 275.581C-118.16 275.157 -117.312 274.308 -117.312 273.46C-116.887 272.187 -116.038 271.338 -114.766 271.338C-113.068 271.338 -111.795 271.763 -110.522 272.611C-109.674 273.036 -108.825 273.884 -107.977 274.732C-105.855 274.732 -104.582 275.581 -102.885 276.43C-102.036 276.854 -101.187 277.703 -100.339 278.976C-99.9146 279.824 -99.4901 280.673 -98.6416 281.521C-96.9444 281.521 -94.8226 283.219 -92.7012 283.219C-91.4282 282.794 -91.4277 281.945 -91.4277 281.097C-89.3062 273.459 -87.185 266.246 -85.0635 258.608C-84.9507 258.27 -84.8407 257.93 -84.7314 257.588C-83.145 256.746 -81.5581 255.583 -79.9717 254.79C-78.6987 253.941 -77.4253 253.092 -76.1523 252.668C-69.7878 249.698 -63.4231 247.152 -57.0586 244.606C-53.6641 243.333 -49.8447 242.484 -46.4502 241.636C-44.3288 240.787 -42.6312 240.787 -40.5098 241.636C-36.2667 243.333 -32.4477 245.455 -28.6289 248.001C-24.8104 250.971 -23.5376 255.215 -23.9619 259.882C-23.962 262.003 -24.8106 264.549 -25.6592 266.671C-27.7807 273.035 -30.3267 278.976 -33.2969 284.916C-34.5697 287.462 -35.4186 290.007 -36.6914 292.129C-39.6616 298.069 -42.6314 304.01 -46.4502 309.526C-48.5717 312.496 -50.2692 315.466 -52.3906 318.437C-53.2392 319.285 -53.6636 320.134 -54.0879 320.559C-54.5122 320.983 -54.937 321.407 -56.21 321.407C-57.4829 320.983 -58.7559 320.134 -60.4531 320.134C-62.999 321.831 -65.1201 323.529 -65.1201 326.499C-64.6957 328.196 -62.9992 329.469 -62.999 331.166C-62.999 332.015 -63.4233 332.439 -63.8477 333.288C-64.6962 334.561 -65.545 335.41 -66.3936 336.683C-66.8178 337.107 -67.2418 337.956 -67.666 338.38V340.077C-67.2417 340.926 -66.3937 341.35 -66.3936 342.198C-64.6963 345.593 -62.9985 348.987 -60.877 352.382C-60.4526 353.655 -59.604 354.504 -59.1797 355.353C-57.4826 356.625 -55.3612 356.625 -53.6641 356.625C-52.3911 355.776 -51.542 354.504 -50.6934 353.655C-50.269 353.231 -49.8447 352.382 -49.8447 351.533V350.685C-50.2691 349.836 -51.1182 348.987 -51.1182 348.139V346.441C-50.6938 344.744 -49.4204 343.471 -48.1475 342.198C-47.7231 341.35 -46.875 340.501 -46.875 340.501C-46.4509 339.653 -47.2985 338.804 -47.2988 338.38C-48.5718 336.683 -49.4204 334.561 -50.6934 332.863C-51.9663 330.742 -53.2398 328.621 -54.5127 326.499V326.074C-54.5125 325.65 -54.088 325.226 -54.0879 324.802C-53.6636 323.953 -52.3906 323.104 -51.542 322.68C-48.9963 320.134 -46.8748 317.588 -44.3291 315.467L-40.5098 311.647C-39.237 310.799 -38.3886 309.95 -37.54 309.102C-35.4185 307.404 -33.2964 305.707 -32.0234 303.586C-32.0234 303.162 -31.1753 302.737 -30.751 302.312C-28.6294 302.737 -26.9316 303.585 -25.2344 304.858C-23.5372 305.283 -21.8402 306.132 -19.7188 306.98C-19.2944 307.829 -18.4458 308.678 -18.0215 309.526L-10.3838 322.256C-9.53523 323.529 -8.68645 324.801 -7.83789 326.074C-3.59474 332.863 0.648941 339.652 4.46777 346.441C4.66951 346.643 4.87123 346.845 5.02734 347.001C5.40137 346.171 5.74016 345.077 5.74023 344.32C12.5292 318.437 18.8936 292.13 25.6826 265.822C26.9556 261.155 28.229 256.487 29.502 251.819C30.7749 245.879 32.0479 239.938 33.7451 233.998C37.1396 219.147 40.9585 204.296 44.7773 189.445C45.2016 188.597 45.6259 187.324 45.626 186.051C44.7773 185.626 44.3525 185.202 44.3525 185.202C41.8067 183.505 38.8368 181.808 36.291 180.11C29.0777 175.867 21.8637 171.199 14.6504 166.956C9.55884 163.562 4.46753 160.591 -0.624023 157.621C-10.8076 152.105 -20.5674 145.74 -30.751 139.8C-36.2669 136.83 -41.359 133.436 -46.875 130.466C-47.7236 130.042 -48.5723 129.192 -49.4209 129.192C-50.2667 129.193 -50.2695 130.036 -50.2695 130.041C-50.4154 130.916 -50.6139 131.791 -50.8428 132.666C-50.9454 132.616 -51.0394 132.587 -51.1182 132.587C-51.9667 132.163 -53.2393 131.314 -54.0879 130.89C-54.9365 130.465 -55.3613 130.041 -55.3613 129.192C-54.9371 128.344 -54.5128 127.071 -54.5127 126.223C-53.2398 121.555 -51.9663 116.887 -50.6934 112.22C-50.2692 111.371 -50.2695 110.947 -50.2695 110.099C-49.8452 109.674 -49.4209 108.825 -49.4209 108.825C-47.2993 108.401 -45.6016 108.401 -43.9043 108.401H-37.9639C-37.1153 108.402 -36.2665 109.25 -35.418 109.674C-31.1749 112.22 -27.3563 114.766 -23.1133 117.312C-16.7486 121.555 -9.95945 125.374 -3.59473 129.617C-2.32185 130.042 -1.47308 131.314 -0.200195 131.314C0.222229 130.47 0.644669 130.466 0.648438 130.466C1.07275 129.617 1.92139 128.344 2.3457 127.495C2.3457 124.525 3.19435 121.979 4.8916 119.857V119.434C4.04297 119.009 3.19434 118.584 2.3457 118.16C2.34566 117.312 1.49704 116.463 0.648438 115.614V112.22C0.224106 111.795 -0.624023 110.947 -0.624023 110.522C0.224548 108.401 0.648468 105.855 1.49707 103.733C4.04295 95.6714 6.58888 87.185 9.13477 79.123C9.55901 78.2745 9.98331 77.0019 9.9834 76.1533C10.4077 75.3047 10.832 74.4561 11.6807 74.4561H36.7148C39.6849 74.8804 42.2311 74.8799 45.2012 74.8799H52.8389C58.355 74.8799 63.8716 75.7285 69.3877 75.7285H80.4199C83.39 76.1528 85.9361 76.1533 88.9062 76.1533H102.06C105.03 76.5776 108.424 76.5771 111.395 76.5771H153.826C156.372 76.5771 158.494 76.5776 160.615 77.002H161.888C165.707 77.002 169.102 76.5771 172.496 77.4258C174.618 77.0015 176.315 77.4258 178.437 77.4258H248.448C250.994 77.8501 253.116 77.8506 255.662 77.8506H257.783C259.374 78.1688 261.204 78.2477 262.915 78.2676L266.229 78.2812C267.94 78.3011 269.77 78.381 271.361 78.6992H292.577C294.698 79.1235 296.396 79.123 298.093 79.123H303.185C303.609 78.6988 304.033 78.2748 304.033 77.8506C304.458 76.5776 304.882 75.3042 304.882 74.0312C304.882 73.1827 305.307 72.3344 306.155 71.9102C307.853 71.9102 309.55 72.3345 311.247 71.9102C312.096 71.4859 312.096 70.6369 313.368 70.6367C314.217 71.061 313.793 72.7585 315.065 72.7588C315.914 72.3345 316.339 71.9102 317.188 71.9102H318.46C319.309 72.3345 320.582 72.7588 320.582 72.7588L322.279 74.4561C322.704 73.1832 323.127 72.3343 323.552 71.0615C330.341 64.2725 337.554 57.4829 344.768 50.2695C345.192 49.8453 345.616 49.421 346.465 49.4209C347.313 48.148 348.162 46.4506 349.011 45.1777C351.981 40.086 354.951 35.8427 357.497 30.751C357.921 30.3266 358.771 29.478 358.771 29.0537C359.619 28.2052 360.044 27.3563 360.468 26.5078C363.014 22.6891 365.135 18.8705 367.257 15.0518C368.954 12.0816 370.651 9.5356 372.349 6.56543V3.1709C372.773 2.74664 373.197 2.32172 373.197 1.89746C373.198 1.47299 374.046 0.625 374.046 0.625C375.319 0.200585 376.592 -1.07227 378.289 -1.07227ZM-51.542 489.436C-51.9663 489.011 -52.8154 489.436 -52.8154 489.436C-55.3613 491.699 -57.3415 494.527 -58.7559 497.922C-59.1801 498.346 -59.1797 499.195 -59.1797 500.044H-58.7559L-59.1797 500.893C-55.3609 500.468 -51.9662 500.468 -48.1475 499.619V498.347C-49.4204 494.528 -50.6934 491.133 -51.542 489.436ZM391.459 454.638C390.611 454.638 390.186 454.214 389.338 454.638V500.04C390.186 500.464 390.611 500.464 391.459 500.464C392.279 500.566 393.125 500.668 393.988 500.765V495.376C393.564 490.709 393.564 485.617 393.564 480.949V458.885C393.989 458.036 394.837 457.187 394.837 456.339V454.976C393.692 454.858 392.561 454.748 391.459 454.638ZM35.4424 439.791C34.5947 439.791 33.7471 440.638 33.7451 440.64C30.3506 444.883 26.1069 448.701 22.2881 452.944C21.0151 454.642 19.3184 455.915 17.6211 457.612C16.7725 458.037 16.3476 458.885 15.499 459.733V461.007C18.0449 472.039 21.44 483.071 24.4102 494.104C24.8343 494.528 25.2585 494.527 25.6826 494.527C28.2284 494.952 30.7746 495.8 33.3203 496.225H34.5938C35.8666 495.8 35.8662 494.952 35.8662 494.527C37.1391 490.709 37.9879 486.89 39.2607 483.071C40.958 475.858 43.0796 468.644 45.2012 461.431C46.0498 458.461 46.8985 455.491 47.7471 452.521V451.672C47.3228 450.823 46.8984 450.398 46.0498 449.55C42.6554 446.155 39.261 442.761 35.4424 439.791ZM563.299 490.703H559.48V481.793H563.299V490.703ZM333.328 393.112C332.055 418.571 331.207 443.606 329.934 469.064V470.762C331.207 471.61 332.904 471.61 334.177 471.61C336.298 472.035 337.572 472.884 337.996 474.581C338.42 475.854 339.269 477.551 339.269 478.824C340.117 480.521 340.542 482.643 340.966 485.188C341.39 484.34 341.391 484.34 341.391 484.34C342.664 476.702 343.512 469.489 344.785 462.275C346.058 455.062 346.907 448.273 348.18 441.06C349.028 435.544 349.877 430.452 350.726 425.36C351.15 421.117 351.999 417.298 352.423 413.055C352.847 409.236 353.696 404.993 354.12 400.75L353.695 400.326V399.478C353.271 398.629 353.695 398.204 353.695 397.355V396.083C352.847 395.234 351.574 394.81 350.301 394.81C345.209 394.385 340.542 393.537 335.45 392.688H333.328V393.112ZM627.769 473.755V483.075H627.765V483.942C628.613 483.942 629.887 483.518 630.735 483.942V480.548C630.311 478.426 630.311 476.729 630.311 474.607V473.335H628.189L627.769 473.755ZM1005.43 483.902H1005.01C1004.59 483.902 1004.16 483.478 1004.16 483.054C1004.16 482.214 1005.41 482.205 1005.43 482.205V483.902ZM503.895 481.368C503.478 481.785 503.471 482.202 503.471 482.217V482.642C503.895 482.217 503.895 481.368 503.895 481.368ZM234.922 457.514C234.1 462.248 233.222 466.986 232.341 471.61C231.876 473.933 231.435 476.276 231.002 478.631C232.279 478.979 233.565 479.329 234.87 479.677C237.335 480.402 239.752 481.075 242.135 481.734C242.995 478.333 243.843 474.949 244.646 471.605C245.433 468.456 246.222 465.307 247.687 462.158C246.547 461.754 245.393 461.363 244.205 461.007C241.002 459.842 237.999 458.678 234.922 457.514ZM563.299 480.944H559.48C559.056 480.944 559.056 480.944 559.056 480.52V472.033H563.299V480.944ZM462.744 267.939C462.325 268.358 461.493 268.364 461.472 268.364C460.623 269.213 459.774 269.637 458.926 270.062C453.834 273.032 449.166 276.001 444.074 278.972C438.558 282.366 433.466 285.761 427.95 289.155C424.556 291.277 421.161 292.974 418.191 295.52C417.767 295.944 417.342 296.368 416.918 296.368C414.372 297.641 412.251 299.338 409.705 300.611C409.705 300.611 409.705 301.036 409.705 301.46C412.251 301.46 414.373 302.733 416.494 303.582C416.919 303.582 417.767 304.006 417.767 304.431C418.615 305.279 419.04 306.128 419.04 307.4V310.795C421.586 311.219 421.161 311.643 422.858 310.795C423.707 310.371 424.556 310.795 424.556 311.22C425.404 311.644 425.404 312.917 424.556 312.917C423.283 313.341 423.283 314.19 423.283 315.463C424.556 316.311 424.556 317.16 423.283 318.009C422.859 318.433 422.434 319.281 421.586 319.281L424.132 339.648V340.497C424.556 340.921 425.829 340.922 426.678 340.922H427.526V323.524C427.951 320.979 429.224 318.857 431.77 317.584C432.618 317.16 433.891 316.735 435.164 315.887C437.286 314.614 440.256 314.19 442.802 314.614C446.196 315.039 449.591 315.887 452.985 316.735C458.501 318.008 463.593 319.282 468.685 320.555C469.957 320.979 471.23 321.403 472.079 321.827C473.352 322.676 473.777 323.525 472.504 324.798L471.655 325.646C469.958 326.919 469.109 328.616 469.109 330.313V349.408C469.958 349.832 470.382 350.257 471.23 350.257C472.079 350.681 472.928 351.529 472.928 352.378C472.928 353.227 472.079 353.651 471.23 354.075C470.806 354.5 469.958 354.5 469.109 355.349V379.959C470.382 380.807 471.655 380.808 472.928 380.808C474.201 380.808 475.474 380.808 476.747 381.656V386.323C476.747 387.172 476.323 387.596 475.898 387.597C475.05 388.021 474.625 388.445 473.776 388.445C472.928 388.445 472.928 388.87 472.928 389.294C472.927 390.142 472.08 390.991 471.655 390.991C470.807 391.416 468.26 391.415 466.987 391.415H464.441C455.955 395.234 447.044 398.629 438.134 402.023C438.133 402.447 437.285 402.447 437.285 402.447C437.709 403.72 437.71 404.145 437.71 404.993L442.802 425.36C445.772 436.817 448.742 447.849 451.712 459.306C452.681 463.182 453.65 467.304 454.619 471.298C455.496 471.542 456.23 472.128 457.221 472.458C457.645 472.882 458.493 473.307 458.493 473.307C459.342 473.731 459.766 474.155 460.19 474.579L461.039 475.428H461.888C462.736 475.003 463.585 474.155 464.434 474.155C464.853 473.736 465.685 473.317 465.706 473.307H466.979L467.828 472.458C468.252 472.034 468.677 471.185 468.677 471.185L469.525 470.336H470.374C470.798 470.76 471.647 470.761 472.071 470.761H472.92C473.344 470.336 473.769 470.336 473.769 470.336C474.617 469.912 475.041 469.487 475.89 469.487H477.163C477.163 468.639 477.587 468.639 478.012 468.639H479.709C480.133 468.639 480.558 468.215 480.558 468.215V467.79H483.104C483.104 467.374 483.513 467.366 483.527 467.366H485.225C485.646 467.366 486.487 467.785 486.498 467.79C486.917 468.209 487.751 468.215 487.771 468.215C488.195 468.215 489.043 468.638 489.468 468.639C489.956 468.883 490.585 469.125 491.192 469.288C491.437 470.173 491.694 471.073 492.014 472.033C492.438 473.306 493.287 475.003 493.287 476.276V476.701C493.711 477.125 494.56 477.55 494.984 477.55C496.257 477.974 497.53 478.822 498.379 479.671C498.774 480.066 498.801 480.094 498.803 480.096H500.076C500.5 479.671 501.349 478.822 501.773 478.822C503.046 477.974 504.319 477.125 505.592 476.276H506.017L506.44 474.579V473.73C506.016 471.609 505.167 469.911 504.743 467.79C503.895 465.244 503.471 462.699 502.622 460.153C502.198 458.456 501.349 457.183 501.349 455.91C500.924 453.789 500.076 451.243 499.651 449.121C498.803 446.151 497.954 442.756 497.105 439.786H494.984C493.711 438.938 492.438 438.513 491.165 437.664C489.892 437.24 489.043 436.391 487.771 435.967C486.073 435.118 484.801 434.269 483.104 433.421C483.078 433.396 483.049 433.373 483.021 433.348L482.679 432.148C482.254 430.027 481.406 427.905 480.981 425.783C480.557 424.086 480.557 424.511 479.284 423.662C478.86 423.238 478.436 422.814 478.012 422.813C477.587 422.813 477.587 422.389 477.587 422.389V421.965C477.163 421.541 476.738 421.116 476.738 420.691C475.89 419.843 475.89 418.994 475.89 417.722V416.448C475.466 416.024 475.466 415.175 475.466 414.751H475.89C476.738 414.327 477.587 413.902 478.436 413.902H478.86C478.436 413.478 478.436 413.054 478.436 413.054C478.044 412.662 478.014 412.632 478.012 412.63C477.163 412.206 477.163 411.781 477.163 411.356C476.739 410.084 476.314 409.235 476.314 407.962C475.466 405.416 475.041 402.87 474.192 400.324C473.768 399.052 473.344 398.203 473.344 397.354C472.927 396.937 473.33 396.52 473.344 396.506H474.192C475.465 396.082 476.739 395.232 478.012 395.232C479.285 394.808 480.982 394.384 482.255 393.96C483.952 393.536 485.649 393.111 487.347 392.687H488.195C489.044 392.262 489.893 391.838 490.741 391.838C491.59 391.838 492.862 390.99 493.711 390.989C494.984 390.989 495.833 390.141 497.105 390.141C498.378 390.141 499.227 389.292 500.5 389.292C502.622 388.868 504.319 388.019 506.44 387.595C507.713 387.17 508.562 386.746 509.411 386.746C510.684 386.746 511.533 385.897 512.806 385.897C513.508 385.757 514.162 385.568 514.802 385.365C514.629 383.245 514.511 381.119 514.511 379.11C514.086 374.019 513.662 368.927 513.662 363.835C513.238 358.743 512.813 353.651 512.813 348.56C512.389 345.589 512.389 342.619 512.389 339.648C511.965 339.224 512.389 338.8 511.965 338.8V339.648C511.116 342.194 510.267 344.316 509.843 346.862C509.418 348.984 508.146 350.256 506.873 351.529C502.63 350.256 498.387 349.832 494.144 348.983C492.446 348.559 490.324 348.135 488.627 347.711C486.93 346.862 485.233 346.862 483.111 346.862C481.838 347.287 480.565 346.013 480.565 344.74C480.141 343.467 480.141 342.195 480.565 340.922C480.99 340.498 480.99 339.649 480.99 339.225V337.527C480.142 333.709 479.717 330.314 478.868 326.495C477.171 318.433 475.898 310.795 474.201 302.733C472.504 294.247 470.382 285.336 468.685 276.85C468.684 276.001 468.26 275.153 467.412 274.729C466.563 274.304 466.139 273.456 466.139 273.031C465.29 271.758 464.866 270.91 464.018 269.637C463.593 268.788 462.744 268.364 462.744 267.939ZM214.503 449.975C213.655 449.975 213.654 450.823 213.654 450.823V471.614C213.654 472.463 213.655 472.888 214.079 473.736C214.927 474.585 215.352 474.585 216.2 474.585C220.635 475.768 224.864 476.948 229.174 478.131C229.239 477.796 229.304 477.462 229.371 477.127C230.191 470.571 231.406 463.619 232.635 456.654C231.973 456.408 231.304 456.161 230.627 455.915C225.96 454.218 221.716 452.52 217.049 450.823C216.2 450.399 215.352 449.975 214.503 449.975ZM455.531 475.005C455.691 475.71 455.858 476.416 456.022 477.125H456.796V476.276C456.372 475.852 456.371 475.428 456.371 475.428C456 474.686 455.629 474.269 455.258 473.893C455.35 474.265 455.439 474.636 455.531 475.005ZM520.019 475.428C519.594 475.852 519.595 476.277 519.595 476.701H520.026V475.428H520.019ZM548.872 393.96C548.024 393.96 547.599 394.384 546.751 394.384H545.478V394.809C543.356 395.657 540.81 396.081 538.688 396.93C537.416 397.354 536.143 398.203 534.87 398.203C532.749 399.052 530.626 399.476 528.505 400.324C527.232 400.749 525.535 401.173 524.262 401.598C524.118 401.598 523.98 401.609 523.846 401.628V423.238C523.846 425.36 524.27 427.482 524.27 429.604C524.27 430.028 524.694 430.452 524.694 431.301C525.543 431.725 526.392 432.574 527.24 432.998C528.088 433.422 528.089 433.846 528.089 434.271C528.089 435.543 528.513 436.817 528.089 438.09C527.665 438.514 526.815 438.938 525.967 438.938V441.908C524.694 442.757 523.421 441.908 522.572 442.757V461.427C522.681 462.841 522.762 464.255 522.822 465.669H523.413C523.837 466.093 524.687 466.093 525.535 466.093C525.96 466.093 526.808 466.517 527.232 466.941C527.657 467.366 528.081 467.791 528.505 468.215C529.353 468.639 529.778 469.487 529.778 470.336V476.276C530.627 475.852 531.9 475.428 532.748 475.428H533.173V475.004C533.597 474.155 534.021 472.882 534.021 472.033C534.87 469.912 535.294 467.79 536.143 465.669C536.567 463.972 536.992 462.698 537.416 461.001C538.264 459.304 538.689 457.607 539.113 455.91C539.538 454.213 540.386 452.516 540.811 450.818C541.235 448.697 542.083 446.575 542.508 444.453C543.356 442.332 543.78 440.21 544.629 438.089C545.053 435.967 545.478 433.845 546.326 431.724V429.603C545.909 429.185 545.902 428.768 545.902 428.754V428.329C545.902 427.905 545.478 427.48 545.478 427.48L541.234 423.237V422.389C541.659 421.54 541.659 420.268 541.659 419.419V418.994H543.356C543.78 418.994 543.78 418.994 543.78 418.57V406.689L542.932 405.841V404.992H551.418L550.569 404.144V402.87H550.994C551.419 402.446 552.267 402.446 553.115 402.446H553.964C554.388 401.598 554.389 400.324 554.389 400.324L556.086 395.657V393.96H548.872ZM65.1445 471.614H65.5684C66.417 471.614 66.8418 471.19 66.8418 470.766C66.4175 469.917 65.993 469.917 65.1445 469.917V471.614ZM324.842 469.489C323.993 469.914 323.144 470.762 322.296 470.762V471.61C323.565 471.187 325.677 470.764 325.69 470.762H325.267C325.267 469.913 325.69 469.489 324.842 469.489ZM481.406 432.572C481.805 432.572 482.577 432.95 483.021 433.348L484.376 438.089C484.385 438.122 485.227 441.068 485.649 442.756C486.498 445.302 486.922 447.424 487.771 449.97C488.195 451.667 488.62 453.364 489.044 455.485C489.893 458.031 490.317 461.001 491.165 463.547C491.165 464.82 492.014 466.093 492.014 467.366C492.014 467.791 492.014 468.639 492.438 469.063V469.487C492.078 469.487 491.641 469.409 491.192 469.288C490.788 467.826 490.421 466.406 489.893 464.82C489.893 463.123 489.043 461.85 488.619 460.153C488.195 458.032 487.346 455.91 486.922 454.213C486.922 453.364 486.922 452.939 486.498 452.091C485.649 449.545 485.225 447.424 484.376 444.878C483.527 442.332 483.104 439.786 482.255 436.815C482.255 435.543 481.406 434.694 481.406 433.421V432.572ZM515.734 403.997C515.165 404.169 514.608 404.355 514.078 404.567C513.229 404.992 511.956 405.841 510.684 405.841C508.138 406.689 506.016 407.113 503.471 407.962C502.198 408.386 500.924 409.235 499.651 409.235C498.803 409.66 498.379 410.084 497.53 410.084H494.984L494.136 410.933V414.751C494.136 415.6 493.711 416.448 493.711 417.297V418.57C494.135 418.995 494.56 419.843 494.56 420.691L495.408 421.54C495.833 421.964 496.257 422.389 496.682 422.389C498.803 423.662 500.5 424.935 502.622 426.208C503.471 426.208 503.471 427.057 503.471 427.057C503.471 427.481 503.894 427.905 503.895 428.329C504.319 428.753 504.319 429.602 504.319 430.026V434.27H502.622V435.543C503.046 437.664 503.895 439.362 504.319 441.483C505.168 444.453 506.017 447.423 506.865 450.394C508.138 453.788 508.986 457.183 509.835 460.577C510.259 462.274 511.108 463.547 511.108 465.244C511.108 466.517 511.957 467.791 511.957 469.063C512.381 469.488 512.381 469.487 513.229 469.487C514.078 469.063 514.503 468.215 515.352 468.215C516.2 467.791 517.048 467.366 518.321 466.941C519.019 466.592 519.43 466.244 520.026 466.131V438.938C519.178 438.938 518.754 438.09 517.905 438.09H516.208L515.359 437.241C515.359 435.968 514.511 435.543 513.662 435.119C512.814 434.695 512.389 433.847 512.389 432.998V431.725C511.965 430.876 512.389 430.027 512.813 429.179C513.662 428.755 514.086 428.755 514.935 428.755H517.057V428.33C516.632 425.36 516.632 422.814 516.632 420.269C516.208 416.874 516.208 413.903 516.208 410.509C515.784 408.812 515.783 406.69 515.783 404.568C515.766 404.377 515.75 404.187 515.734 403.997ZM326.539 447.425C325.266 447.849 323.993 448.273 323.145 449.122C322.72 451.244 322.721 453.79 322.721 455.911V469.064C323.994 469.064 326.115 467.792 326.115 467.792L325.69 467.367C326.115 460.578 326.539 454.214 326.539 447.425ZM615.884 466.546L609.52 464.849H615.884V466.546ZM153.401 258.185C152.553 258.185 152.129 258.609 152.129 259.033C151.705 259.882 151.28 260.731 151.28 261.579C149.583 267.095 148.31 273.036 146.612 278.552C144.915 284.492 143.219 290.432 141.521 296.372C139.4 304.01 137.278 311.648 135.156 319.285C133.883 324.377 132.186 329.894 130.913 334.985C128.792 341.774 127.094 348.987 124.973 355.776C122.851 363.414 120.73 371.052 118.608 378.689C117.335 383.781 115.638 388.873 114.365 393.965C112.244 401.178 110.546 408.392 108.425 415.181C106.303 422.818 104.181 430.456 102.06 438.094C100.787 442.761 99.5141 447.428 98.2412 452.096C98.2412 452.096 98.2412 452.52 98.2412 452.944C99.5139 452.52 99.9386 451.671 100.787 451.247C101.636 450.823 102.485 449.974 103.333 449.55C103.757 449.125 104.606 448.277 105.454 447.853C106.303 447.428 107.151 446.58 108 446.155C108.424 445.731 109.274 444.882 110.122 444.458C110.971 444.033 112.668 442.761 112.668 442.761L114.789 441.063C115.638 440.639 116.486 439.791 117.335 439.366C118.184 438.518 119.032 438.093 119.881 437.669C120.305 438.093 121.154 438.094 121.578 438.094C126.246 439.791 130.914 441.913 135.581 444.034C142.794 447.429 149.583 450.399 156.796 453.369C161.463 455.491 166.131 457.612 170.799 459.733C175.466 461.855 180.133 463.977 184.801 466.099C185.064 466.165 185.349 466.252 185.641 466.351C185.647 466.269 185.649 466.184 185.649 466.099V464.401C185.225 462.704 185.226 460.582 185.226 458.885C184.801 456.763 184.801 454.642 184.801 452.521C184.376 450.399 184.801 448.702 184.377 446.58V446.155C184.377 442.337 183.528 438.518 183.528 434.699V428.759C183.528 426.637 183.528 424.091 183.104 421.97V419.848C182.679 418.15 182.68 416.029 182.68 414.332V411.361C182.256 409.664 182.255 407.967 182.255 406.271V404.148C182.255 402.027 182.255 399.906 181.831 397.784V396.087C181.831 393.965 181.831 391.843 181.406 389.722V388.024C180.982 385.903 181.407 383.782 180.982 381.66V379.538C180.558 377.417 180.982 375.719 180.558 373.598V371.9C180.558 369.779 180.558 367.233 180.134 365.111V362.99C179.709 361.293 179.709 359.171 179.709 357.474V354.928C179.285 353.231 179.285 351.109 179.285 349.412V346.441C178.861 344.744 178.86 343.047 178.86 341.35V339.229C178.86 337.107 178.861 334.985 178.437 332.863V331.166C178.012 329.045 178.436 326.923 178.012 324.802V322.68C177.587 320.558 177.588 318.861 177.588 316.739V314.618C177.164 312.497 177.587 310.799 177.163 308.678V306.98C177.163 304.859 177.164 302.313 176.739 300.191V298.069C176.315 296.372 176.314 294.251 176.314 292.554V290.008C175.89 288.311 175.891 286.188 175.891 284.491V281.521C175.466 279.824 175.466 278.127 175.466 276.43V274.309C175.042 272.187 175.042 270.065 175.042 267.943V261.579H170.799C170.378 261.579 169.957 261.996 169.95 262.003C170.799 262.852 171.647 263.276 172.496 264.125C172.496 265.398 171.647 266.246 170.799 267.095H169.525C168.677 266.246 167.404 265.822 166.131 264.974C162.312 262.852 158.069 260.306 154.25 258.185H153.401ZM563.299 460.577H560.753C559.48 460.577 559.48 460.577 559.48 459.304V452.091H563.299V460.577ZM364.728 413.055C362.606 427.481 360.485 441.484 358.363 455.486C357.939 456.759 357.938 458.033 357.938 459.306C360.484 460.154 363.455 460.154 366.425 460.154H375.335V458.457C375.759 452.517 376.184 446.576 376.184 440.636C376.608 434.695 377.032 429.179 377.032 423.238V414.752C373.214 413.903 368.97 413.479 364.728 413.055ZM86.3604 396.936C85.0874 396.936 85.0869 397.784 85.0869 397.784C84.6626 399.481 84.2387 400.754 83.8145 402.451C81.6929 409.664 79.5708 416.878 77.4492 424.091C75.3277 431.728 72.7817 439.366 70.6602 447.004C69.8115 449.55 68.9634 451.672 68.5391 454.218C68.5392 454.642 68.9634 455.066 69.3877 455.066C71.0849 455.491 73.2062 456.339 74.9033 456.764H75.752V456.339L76.1768 456.764C81.2685 438.094 86.3599 419.424 91.876 400.754C90.1789 398.633 87.6334 398.208 86.3604 396.936ZM563.299 450.394H561.602V441.907H563.299V450.394ZM242.537 412.797C241.724 417.934 240.699 423.285 239.979 428.33C239.224 433.235 238.135 437.806 237.306 442.637C241.347 444.28 245.723 446.253 249.722 447.853H250.994V447.429C248.873 440.215 247.176 432.578 245.479 425.364C244.555 421.118 243.551 416.952 242.537 412.797ZM328.236 426.633C326.539 426.633 325.69 427.057 323.993 428.33V430.876C323.569 435.968 323.569 440.636 323.569 445.728V447.425C324.842 447.425 326.964 446.151 326.964 446.151L327.388 445.728C327.388 439.363 328.236 432.998 328.236 426.633ZM663.013 446.999V446.575H662.164V444.029C662.164 444.029 662.165 443.604 662.589 443.604H663.438C663.446 443.604 663.652 443.599 663.773 443.449L663.013 446.999ZM396.551 404.145C396.261 406.171 395.975 408.394 395.686 410.681V442.191C396.512 442.278 397.354 442.333 398.248 442.333C401.643 442.757 404.613 443.605 408.008 443.605C411.827 444.03 416.069 444.455 420.312 444.879C423.283 445.303 426.253 446.151 429.224 446.151H432.618C429.648 432.998 426.253 420.268 423.283 407.114C422.859 406.69 422.858 406.266 422.858 406.266H422.01C419.888 406.266 417.767 405.417 415.646 405.417L397.824 402.871H396.551V404.145ZM659.194 442.756V443.604H660.043V441.907L659.194 442.756ZM663.861 443.181C663.861 443.303 663.824 443.387 663.773 443.449L663.861 443.04V443.181ZM663.861 443.04V442.756C663.883 442.756 663.903 442.753 663.923 442.751L663.861 443.04ZM664.286 441.907C664.286 442.31 664.286 442.711 663.923 442.751L664.286 441.059V441.907ZM394.837 416.31C394.147 420.063 393.507 423.627 393.156 427.481L392.732 427.058C392.308 431.301 391.459 435.968 391.035 440.211V441.484C392.379 441.708 393.605 441.929 394.837 442.091V416.31ZM227.657 390.146C226.809 390.571 226.809 390.995 226.809 391.419V406.271C226.384 409.24 226.808 412.635 226.384 415.604V438.094C226.808 438.094 227.233 438.942 228.081 438.942C230.585 439.658 232.789 440.672 235.198 441.736C235.661 439.093 236.121 436.47 236.584 433.847C237.857 426.633 239.555 419.419 240.403 412.206C240.612 410.435 240.845 408.664 241.099 406.893C240.267 403.46 239.451 400.013 238.689 396.511C238.265 395.662 237.841 394.39 237.841 393.541C237.418 392.695 235.729 391.849 235.719 391.844L235.295 393.116C232.325 391.843 229.355 390.147 227.657 390.146ZM563.299 441.059H562.026C562.026 441.059 561.602 441.059 561.602 440.635C561.602 440.635 561.602 439.786 561.602 439.361H563.299V441.059ZM221.717 431.729C219.171 431.729 216.625 432.153 214.079 432.153C216.201 433.426 218.322 434.699 221.717 435.548C222.56 435.548 222.565 434.709 222.565 434.699V431.729H221.717ZM559.48 431.724C559.48 431.724 559.299 431.724 559.056 431.724C559.056 431.716 559.06 431.3 559.48 431.3V431.724ZM572.634 430.451H571.361V431.724H573.059V431.3C573.059 430.027 571.785 430.026 571.785 430.026L572.634 430.451ZM583.242 430.875C583.658 431.291 584.074 431.3 584.09 431.3H586.637V423.662C586.637 422.814 586.636 422.813 585.788 422.813H583.242V430.875ZM563.299 430.875H567.967C568.383 430.875 568.391 430.465 568.391 430.451V430.026H563.299V430.875ZM219.595 407.968C217.049 408.392 214.928 408.392 212.382 408.392H209.411C208.989 408.392 208.987 409.234 208.987 409.24V411.786C209.412 413.483 209.411 415.181 209.411 416.878V419.424C209.835 421.121 209.836 422.818 209.836 424.516C209.836 426.203 210.675 429.989 210.685 430.031H214.079C217.049 429.607 220.019 429.183 222.989 429.183C223.838 428.758 223.838 428.334 223.838 427.91C224.262 426.637 224.263 424.94 224.263 423.667V407.968H219.595ZM325.69 406.69C324.418 407.539 324.418 407.963 324.418 409.236V425.36C324.418 425.785 323.994 426.209 324.418 426.633C325.691 426.633 327.812 424.936 327.812 424.936H327.388C328.236 417.298 328.236 407.539 328.236 405.417C327.388 405.841 326.539 406.266 325.69 406.69ZM520.195 402.695C519.143 403.063 518.015 403.356 516.902 403.663C517.054 405.622 517.057 407.429 517.057 409.236V413.479C516.632 416.45 517.056 419.42 517.48 422.39H520.451C520.451 421.867 520.348 414.127 520.195 402.695ZM544.205 421.965H549.721C550.145 421.116 550.146 420.691 550.146 419.843V417.297C550.57 416.873 550.569 416.448 550.569 416.448V412.205C550.569 411.788 550.159 411.781 550.146 411.781H545.054L544.205 410.933V421.965ZM570.088 421.965H570.513V420.691C570.088 419.843 570.088 418.994 570.088 418.146V421.965ZM581.12 418.146C580.272 417.721 580.271 418.146 580.271 418.57V418.994C580.696 419.843 580.695 420.691 580.695 421.54L581.12 421.116V418.146ZM562.45 418.146L561.178 418.57V421.116H561.602V418.994L562.026 419.419C561.602 419.843 561.602 420.692 561.602 421.116H567.118C567.966 421.116 567.967 420.691 567.967 420.691V417.722H562.45V418.146ZM583.666 418.146C583.242 418.146 583.242 418.57 583.242 418.57V420.268H585.788V418.146H583.666ZM579.848 416.448C579.848 416.869 580.265 416.873 580.271 416.873H580.695L581.12 416.448V412.205H579.848V416.448ZM586.637 409.235C586.212 409.66 585.363 409.659 585.363 409.659C584.515 410.083 584.515 410.508 584.515 410.933V416.873H587.061V411.781L587.909 412.205V409.659C587.909 409.243 587.501 409.236 587.485 409.235H586.637ZM544.205 409.235C544.628 409.658 545.051 410.502 545.054 410.508C545.054 410.932 545.902 410.933 545.902 410.933H550.569V407.538H544.205V409.235ZM579.423 410.933H581.12V410.508L581.969 410.933C581.969 410.084 581.969 410.084 581.12 409.235L580.695 408.811C580.271 408.387 579.847 408.387 579.423 408.387V410.933ZM578.999 404.992C578.575 404.992 578.574 405.417 578.574 405.841V406.689C578.998 407.114 578.999 407.113 578.999 407.113H579.848C580.696 407.113 581.121 407.538 581.545 407.962V404.992H578.999ZM582.394 406.689L582.817 405.841V407.962H583.242C583.66 407.962 583.666 407.55 583.666 407.538H584.515C585.363 407.114 585.788 407.113 586.637 407.113V406.265C586.637 405.84 586.212 404.992 586.212 404.567C586.212 404.152 585.804 404.144 585.788 404.144H582.394V406.689ZM215.352 384.63C213.23 385.054 210.684 385.055 208.562 385.055C207.714 385.055 207.29 385.055 206.441 385.903V387.176C206.866 391.843 207.29 396.087 207.714 400.33L207.29 399.905V403.3C207.29 404.148 207.29 405.422 208.139 406.271H212.806C215.351 405.846 217.473 405.846 219.595 405.846H222.989C223.414 405.846 223.414 404.997 223.414 404.997C224.263 402.451 224.263 399.481 224.263 396.936C224.263 394.814 224.262 392.268 224.687 390.146C224.687 389.298 225.111 388.024 224.687 387.176C222.989 385.903 221.292 385.478 219.595 384.63H215.352ZM551.418 404.144C551.842 404.992 552.267 405.417 552.691 405.841H553.54V404.567C553.957 404.151 553.554 404.144 553.54 404.144H551.418ZM324.842 405.417C326.539 405.417 328.661 403.721 328.661 403.721V403.296C329.085 400.326 329.085 396.931 329.085 393.537V391.84C327.812 391.416 326.539 391.415 324.842 391.415V405.417ZM580.271 400.749H579.848C578.999 400.325 578.575 401.172 578.15 401.173C577.726 401.597 577.726 402.446 577.726 402.446V403.295H580.695C581.535 403.295 581.545 402.464 581.545 402.446L581.969 404.567V400.749C581.969 399.917 581.561 399.901 581.545 399.9H580.271V400.749ZM366.425 400.75C368.546 401.174 375.335 402.023 377.457 402.023V399.053H376.608C373.638 398.628 370.244 398.205 367.273 397.78H366.425V400.75ZM650.683 398.711C650.875 398.956 651.069 399.207 651.262 399.476H651.132C651.126 399.464 650.934 399.086 650.683 398.711ZM649.525 397.229C649.779 397.569 650.03 397.887 650.283 398.203C650.28 398.2 649.743 397.662 649.525 397.229ZM648.363 395.643C648.749 396.043 649.172 396.406 649.435 396.93C649.435 397.016 649.47 397.119 649.525 397.229C649.354 397 649.182 396.762 649.011 396.506L648.363 395.643ZM577.491 393.111C576.843 393.429 576.453 393.809 576.453 394.384H579.423C579.847 394.384 579.848 394.809 579.848 394.809C579.847 395.233 579.423 395.232 579.423 395.232H578.574C577.951 395.232 577.555 395.689 577.222 395.932C577.962 395.657 578.747 395.657 579.848 395.657H581.545C581.969 394.809 581.544 394.384 581.12 393.535C580.696 393.111 580.695 393.111 580.695 393.111H577.491ZM378.729 376.564C376.184 377.413 374.062 378.686 371.94 379.959C371.092 384.626 370.244 389.294 369.819 393.961C370.668 394.809 371.94 394.81 372.789 394.81C374.486 395.234 376.184 395.234 377.881 395.234C378.729 389.294 378.729 382.929 378.729 376.564ZM645.062 391.241C645.496 391.581 646.04 391.923 646.04 392.263C646.464 393.111 647.312 393.959 647.736 394.807C646.888 393.676 646.04 392.545 645.191 391.414C645.148 391.356 645.105 391.299 645.062 391.241ZM645.062 391.241C644.954 391.157 644.852 391.074 644.768 390.989C644.768 390.927 644.748 390.857 644.716 390.78L645.062 391.241ZM643.955 389.766C644.268 390.1 644.594 390.486 644.716 390.78C644.462 390.442 644.209 390.104 643.955 389.766ZM638.402 382.079C639.251 383.352 640.524 384.625 641.373 386.322C642.234 387.47 643.094 388.618 643.955 389.766C643.786 389.585 643.621 389.419 643.494 389.292C642.221 387.595 640.948 386.322 640.1 384.625C639.675 383.776 638.827 382.927 638.402 382.503C638.402 382.49 638.396 382.072 637.979 381.654C637.979 381.653 637.98 381.652 637.98 381.651C638.109 381.783 638.248 381.925 638.402 382.079ZM105.879 327.348C105.455 328.621 104.605 330.318 104.605 331.591C102.908 337.531 101.211 343.047 99.5137 348.987C97.3921 357.049 94.8462 364.687 92.7246 372.749C91.876 375.295 91.4521 377.841 90.6035 380.387V382.933C91.8748 383.78 95.2613 385.051 95.2705 385.055L94.8467 384.63C95.2709 384.206 95.6953 383.357 95.6953 382.933C96.5439 380.387 96.9679 378.265 97.8164 375.72L102.908 357.898C105.03 351.109 106.727 344.32 108.849 337.531C109.273 335.834 110.122 333.712 110.546 332.015C110.546 331.166 110.97 330.317 110.546 329.469C109.697 328.62 108 328.196 106.728 327.348H105.879ZM411.402 381.231C411.402 382.504 410.978 383.778 411.402 385.051C412.249 385.051 412.673 383.784 412.675 383.777H413.523V382.08C413.523 381.232 413.099 381.231 412.675 381.231H411.402ZM518.754 295.096C518.33 295.52 518.329 296.369 518.329 296.793C517.905 301.036 517.057 304.855 516.208 309.098C515.359 315.038 514.086 320.555 512.813 326.495V332.011C513.238 336.254 513.662 340.921 513.662 345.589C514.086 353.227 514.51 361.289 514.935 368.927C515.359 374.018 515.783 379.11 515.783 384.202V385.046C516.735 384.729 517.688 384.412 518.746 384.2C519.229 383.959 519.576 383.856 519.94 383.812C519.44 346.839 518.754 296.449 518.754 295.096ZM414.797 381.656C414.373 382.505 414.373 383.354 414.797 383.354C416.494 382.929 417.343 382.08 417.343 382.08V381.656H414.797ZM208.562 379.538C207.72 379.538 207.714 380.375 207.714 380.387C207.714 381.235 207.29 382.084 207.714 382.933H215.776C214.079 381.66 211.108 380.387 208.562 379.538ZM457.652 376.988C460.623 377.837 463.169 378.261 465.715 378.686H466.987V349.832C464.017 348.983 461.047 348.559 458.077 347.711H457.652V376.988ZM410.554 367.229C410.13 368.927 410.554 374.443 410.554 376.564H412.251L412.675 376.988V372.321C412.675 370.624 413.099 368.927 412.675 367.229H410.554ZM414.372 369.351C413.948 372.321 414.372 375.292 414.372 376.564C414.796 376.564 415.645 376.988 416.069 376.564C415.647 372.764 414.384 369.804 414.372 369.775V369.351ZM451.288 376.14C452.137 376.564 452.985 376.564 453.834 376.564H456.38V367.653H457.229V347.711C455.531 347.287 453.41 346.438 451.288 346.438V376.14ZM448.317 362.138C447.469 362.138 446.62 362.986 445.771 362.986C442.801 364.259 439.407 365.532 436.437 366.805C434.315 367.653 432.193 368.502 429.647 368.502H428.799C429.223 372.321 430.072 374.867 430.921 376.14H431.77C433.467 375.715 435.164 374.867 436.861 374.019H439.831C441.953 374.443 444.075 375.291 446.196 375.291H448.742L448.317 374.867V362.138ZM405.869 371.9C405.869 373.064 406.124 374.356 406.354 375.636C406.483 375.659 406.61 375.685 406.734 375.716H408.432C408.856 373.17 408.432 367.653 408.008 365.956C407.453 365.956 406.671 365.861 405.869 365.739V371.9ZM230.627 363.414C229.778 364.263 229.778 364.688 229.778 365.536C229.778 368.082 229.354 370.204 229.778 372.325C230.627 372.749 231.476 373.598 232.324 373.598V372.749H232.749C232.325 369.779 231.476 366.384 230.627 363.414ZM226.384 361.717C223.838 360.868 220.868 361.717 218.322 361.717C215.776 362.141 212.806 362.565 210.26 362.565V362.99C211.108 363.839 213.23 364.688 213.23 364.688H212.806C214.079 365.536 215.352 365.96 216.625 366.809C219.595 368.506 222.565 369.779 225.535 371.052C226.384 370.203 226.384 369.779 226.384 369.354C226.384 366.809 226.808 364.687 226.384 362.142V361.717ZM625.673 355.771C626.097 356.62 626.098 357.044 626.098 357.469C626.522 360.014 627.37 362.136 628.219 364.682C628.643 365.106 628.644 365.955 628.644 365.955V366.379C628.644 367.652 629.492 368.501 629.492 369.35C629.492 370.066 629.794 370.175 630.144 370.192C629.795 369.383 629.492 368.367 629.492 367.652C629.068 366.381 628.221 363.417 628.219 363.409C627.794 361.288 626.946 359.59 626.521 357.469V356.195C626.097 355.347 625.673 354.923 625.673 354.074V355.771ZM197.955 145.74C200.077 147.862 200.925 150.833 200.925 153.803V155.075C201.349 155.924 202.198 156.772 203.047 156.772C203.471 156.348 204.32 155.924 204.744 155.924C205.592 155.5 206.017 155.5 206.865 155.5C208.138 155.924 209.412 156.349 210.685 156.349C212.382 156.349 213.655 155.076 215.352 155.5C216.2 155.924 216.2 156.773 216.2 157.621L215.776 158.046C217.898 157.197 220.02 157.197 221.717 156.772C224.263 156.348 226.808 156.349 229.778 156.349C231.9 156.349 234.022 157.197 235.719 158.47L242.084 164.835V169.892C241.65 169.478 241.224 169.067 240.811 168.653C238.265 166.532 235.719 165.683 232.324 165.259C228.506 165.259 224.687 165.259 220.868 166.107C220.02 166.107 219.171 166.108 218.322 166.532C216.625 166.957 214.927 167.805 213.654 169.078C212.382 170.351 211.533 172.048 210.685 173.745C210.685 174.311 210.6 174.877 210.507 175.442H209.836C209.836 172.048 209.836 168.653 210.685 165.259C210.685 162.289 212.382 159.743 214.928 158.046H214.079C212.382 158.046 210.685 158.895 209.836 160.592V162.713C209.412 163.137 209.411 163.986 209.411 163.986C208.563 164.411 208.138 164.835 207.29 165.259V169.078C208.139 173.746 208.987 177.989 209.836 182.656C210.26 180.959 210.26 179.262 210.26 177.564C210.26 176.857 210.39 176.15 210.507 175.442H211.108V182.231C212.381 183.929 212.382 185.626 212.382 187.748V189.445C213.23 189.869 213.655 189.869 214.079 189.869C216.625 189.021 219.595 189.869 222.141 189.021H229.354C232.325 189.021 235.295 190.294 237.841 192.415C239.114 193.264 239.962 194.537 241.235 194.961V191.566C241.235 188.172 241.66 184.353 242.084 180.959V169.892C243.04 170.802 244.039 171.714 245.066 172.624C245.054 173.226 245.054 173.872 245.054 174.594H245.479C245.868 174.399 246.257 174.204 246.646 174.009C247.523 174.769 248.41 175.53 249.297 176.291C250.146 177.14 250.994 177.564 251.843 178.413C253.54 179.686 254.813 180.959 256.086 182.231C257.359 183.504 257.359 184.778 256.086 186.051C255.238 186.475 254.813 186.899 253.965 187.323C253.541 187.747 252.692 188.172 252.268 188.172C251.843 188.596 250.994 188.597 250.994 188.597C249.297 189.87 248.024 191.567 247.6 193.688V200.053C247.6 201.731 247.596 203.41 247.52 205.089C246.232 204.213 243.814 202.202 243.781 202.175L243.356 201.75C242.932 203.023 242.932 203.872 243.356 207.267C244.205 207.691 244.63 207.69 244.63 207.69C245.604 208.015 246.578 207.594 247.362 207.379C247.311 207.907 247.251 208.436 247.176 208.964C247.6 209.388 248.024 210.237 248.448 210.661C250.145 212.358 251.843 213.631 253.54 215.328C253.964 215.752 254.813 216.177 254.813 216.602C255.662 217.874 255.661 219.571 254.389 220.42C253.116 221.268 251.843 221.693 250.57 221.693C249.297 221.693 248.024 222.118 246.751 222.542V246.728C248.448 248 250.57 249.273 252.691 250.971C254.813 252.244 256.935 253.517 258.632 255.214C258.208 257.76 258.632 259.881 257.783 262.003C256.935 262.003 256.087 262.851 255.662 262.852C254.814 263.7 255.238 265.398 253.965 265.822C252.268 265.398 250.994 264.125 249.297 263.276C246.751 263.701 243.781 264.125 241.235 264.549C240.387 265.397 240.387 265.822 240.387 266.246C239.962 269.641 239.962 272.611 239.962 276.006V297.221C239.962 301.181 240.387 305.141 241.235 309.102C242.508 313.345 243.357 318.013 244.63 322.256C246.751 329.893 248.449 337.955 250.57 345.593C251.985 351.25 253.398 356.907 254.812 362.564C257.352 363.141 260.122 363.489 262.892 363.835C267.135 364.259 271.378 365.108 275.621 365.532C279.016 365.957 281.986 366.38 285.381 366.805C287.927 367.229 290.473 368.078 293.019 368.078H294.716C295.989 366.381 296.837 364.683 297.686 363.41C298.958 361.713 299.383 360.016 299.383 357.895V356.197C299.383 355.349 300.231 354.924 300.231 354.075C300.656 353.227 301.505 352.803 301.505 351.954C301.081 351.53 300.656 351.106 299.808 351.105V349.408C300.232 345.589 300.656 342.195 300.656 338.376C301.505 333.709 301.505 329.465 301.505 325.222C301.505 323.949 301.929 323.101 303.202 322.252C313.386 315.039 323.569 308.249 333.753 301.036C346.058 292.126 358.787 283.639 371.092 274.729C375.966 271.126 380.946 267.628 385.927 264.185V193.688C385.078 194.113 385.078 194.537 385.078 194.537C382.532 200.902 379.986 207.266 377.016 213.631C373.621 220.42 370.227 227.634 366.408 234.423C363.014 240.788 359.619 246.728 355.8 252.668C352.405 258.608 348.162 264.125 343.919 270.065C340.1 275.157 335.857 279.824 332.038 284.916C331.19 285.765 330.341 287.038 329.068 287.462H327.795C321.43 284.067 315.49 280.673 309.125 277.278C308.276 276.854 307.428 276.43 306.579 275.581V272.187C307.003 271.338 307.853 270.065 308.701 268.792V177.564C307.853 176.292 307.003 175.019 306.579 173.321C304.882 168.654 303.185 164.411 301.487 159.743C300.214 156.349 298.942 153.378 297.669 149.983H296.396C293.001 149.559 289.182 149.559 285.788 149.135C283.242 148.71 280.271 148.711 277.726 148.711H272.635C270.938 148.287 269.24 148.286 267.543 148.286H265.421C263.724 147.862 262.451 147.862 260.754 147.862H258.632C256.935 147.438 254.813 147.862 253.116 147.438C249.722 147.438 245.902 146.589 242.508 146.589C240.811 146.165 238.689 146.165 236.992 146.165H211.533C208.563 145.741 206.017 145.316 203.047 145.316H197.955V145.74ZM327.388 350.681C326.963 355.348 326.115 360.016 326.115 364.684V367.653C326.964 367.229 327.813 366.805 328.661 366.381C329.51 365.957 329.934 365.107 329.934 364.259C330.358 360.44 331.207 356.621 331.207 352.803C331.207 352.379 331.631 351.53 331.207 351.105C329.934 350.681 329.085 350.681 327.388 350.681ZM27.8047 116.888C26.9561 116.888 26.1075 117.312 26.1074 118.16V121.555C26.5317 122.403 26.9561 122.828 26.9561 123.677C27.3802 124.95 27.3803 126.647 26.9561 127.92C26.5318 128.768 26.1074 129.193 26.1074 130.041V142.771C26.5318 143.195 27.3804 144.043 27.8047 144.043C35.4423 148.71 42.6554 153.378 50.293 158.046C54.9604 161.016 59.6284 163.986 64.2959 166.956C65.1445 167.38 65.9932 167.805 65.9932 169.078C64.7202 174.594 63.4468 180.11 62.1738 186.051C61.7497 186.475 61.75 186.899 61.75 186.899C60.9014 187.324 60.4766 187.323 59.6279 187.323C58.3552 186.899 57.0823 185.626 55.8096 185.626C54.9609 186.05 54.9609 186.475 54.9609 186.899C54.1124 190.294 53.2636 193.264 52.415 196.658C51.1421 202.174 49.4448 208.115 48.1719 214.056C46.4746 220.42 44.7773 227.21 43.0801 233.574C36.2911 259.457 29.9257 285.764 23.1367 311.647C20.1665 323.528 16.772 335.834 13.8018 347.715C13.3774 350.261 12.5288 352.382 12.1045 354.504V355.353C12.5239 355.772 13.7731 355.362 13.8018 355.353L15.499 356.625H16.7725C16.7725 357.049 17.6209 357.898 17.6211 358.322V362.142C17.621 363.414 17.1963 364.263 17.1963 365.536C18.0449 366.385 18.4697 365.536 19.3184 365.536C21.0156 366.385 22.713 366.809 24.4102 367.233C25.6831 366.809 26.5317 366.384 27.8047 365.96C28.2289 365.111 28.2285 363.839 28.2285 362.99C27.8042 362.142 27.3799 361.292 27.3799 360.868C27.3799 359.595 27.8047 358.747 28.6533 358.322C29.9263 357.474 31.6236 356.625 32.8965 355.776L43.0801 350.685C52.8393 346.017 63.0231 342.199 73.6309 340.077C74.9038 339.229 76.6011 339.229 77.874 339.229H81.6924C82.9653 336.258 83.3897 334.985 86.7842 322.68C88.0571 317.164 89.7549 311.648 91.4521 306.132C92.7251 300.191 94.4219 294.675 96.1191 289.159C97.8164 283.643 99.0899 278.127 100.787 272.611C102.378 267.44 103.596 262.268 105.141 257.097L105.768 255.028C107.312 249.857 108.531 244.686 110.122 239.515C109.698 239.09 109.697 238.242 109.697 237.817V236.12C109.273 235.696 108.424 235.271 108 234.847C107.576 234.422 107.576 233.574 107.576 233.149C106.728 232.725 105.454 231.876 104.605 231.452C96.5435 226.785 88.9057 222.541 80.8438 217.874C79.1466 217.025 77.4491 215.753 75.752 214.904C74.9068 214.482 74.0615 213.217 74.0547 213.207V210.661C73.2061 209.812 71.9331 209.388 70.6602 208.539V202.175C71.0844 200.902 71.509 200.478 72.3574 200.478C74.479 200.053 76.6011 199.628 78.7227 199.204C81.2685 198.78 84.2389 198.355 87.209 197.507C87.6334 197.083 88.482 196.658 88.9062 196.658C89.7547 194.961 89.7549 193.264 89.7549 191.566C90.1791 189.869 90.1787 188.172 90.1787 186.475V174.17C89.7544 172.897 88.9062 172.472 88.0576 172.048C85.936 170.775 83.814 169.502 81.6924 167.805C80.8439 166.956 79.995 166.532 79.1465 165.684C77.8736 163.986 78.2979 162.289 79.9951 161.016C81.2681 160.167 82.9658 159.318 84.6631 159.318C86.3601 158.894 87.633 158.47 89.3301 158.47C90.1786 158.47 91.0274 157.621 91.876 157.621V156.349C92.3003 150.408 93.1494 144.468 93.1494 138.527C92.7252 138.103 91.8766 137.255 91.4521 137.255C89.3307 135.558 86.7846 133.86 84.6631 132.163L83.3896 130.89C82.9653 130.041 82.1172 129.617 82.1172 129.192C81.6929 127.919 82.1172 126.646 82.9658 125.798C83.8144 125.373 84.6632 124.525 85.5117 124.525C86.3603 124.101 87.209 123.677 88.0576 123.677H87.6328C86.3599 123.252 84.6626 123.252 83.3896 123.252C81.2681 122.828 78.7221 122.828 76.6006 122.828C74.0548 121.98 71.0849 121.979 68.5391 121.979C64.7203 121.555 61.3256 121.555 57.5068 121.131C54.1123 120.707 51.1416 121.131 47.7471 120.282H46.4746C43.5044 120.282 40.5337 119.434 37.5635 119.434C36.715 119.433 35.8661 118.585 35.0176 118.585C34.169 118.161 33.3203 117.312 32.4717 117.312H29.9258C29.0773 116.887 28.229 116.888 27.8047 116.888ZM447.894 345.165C444.499 344.316 441.528 343.468 438.134 344.316C434.739 345.165 431.345 346.862 427.95 348.56L427.102 348.135V364.259C427.102 365.107 427.526 365.957 427.95 366.381C429.223 366.805 430.92 366.38 432.193 365.956C436.861 364.259 441.953 362.138 446.62 360.44C447.044 360.016 447.469 359.592 447.894 359.592V352.378C447.894 349.832 448.318 347.711 447.894 345.165ZM642.222 352.801C641.373 352.801 640.948 353.649 640.1 353.649C638.402 354.498 637.13 354.923 635.433 355.771V357.044L634.584 357.469C635.008 358.742 635.856 359.59 635.856 360.863C636.281 362.136 637.13 363.409 637.13 364.682V365.106C637.978 364.682 638.827 364.682 639.676 364.682C641.373 364.682 643.494 363.833 645.191 363.833C645.616 363.409 646.465 363.409 647.313 363.409V362.136L644.768 357.044C644.343 355.771 643.494 354.498 642.646 353.226V352.801H642.222ZM408.856 364.259H411.402V359.167C410.978 356.621 410.129 353.651 409.705 351.105L408.856 350.681V364.259ZM333.753 351.529C332.904 354.075 332.479 361.713 332.479 363.835C334.177 362.986 335.026 362.137 336.299 361.713C337.572 361.288 338.42 360.015 338.42 358.318V352.803C336.734 351.96 333.791 351.954 333.753 351.954V351.529ZM407.159 357.47C406.796 357.833 406.354 358.116 405.869 358.391V363.835H407.583C408.007 362.138 407.583 358.743 407.583 357.47H407.159ZM373.208 356.634C372.365 358.749 372.365 360.444 372.365 362.138C374.062 362.986 375.335 362.986 377.032 362.986V357.47C375.756 356.832 374.001 356.673 373.208 356.634ZM200.501 312.921C200.925 314.618 200.077 316.315 200.501 318.013V320.134C200.925 323.528 201.35 326.499 201.35 329.894C202.198 332.439 202.198 335.409 202.198 337.955C202.198 341.35 203.047 345.169 203.047 348.563V351.533C203.471 354.079 203.896 357.05 203.896 359.596C204.316 360.016 205.151 360.02 205.168 360.02L205.593 359.171V358.747C205.593 354.928 206.441 351.534 206.441 347.715V346.866C207.29 343.896 207.29 340.501 207.29 337.531C207.714 334.137 207.29 330.742 208.139 327.348V325.226C208.563 323.528 208.562 321.831 208.562 320.134V316.739C208.138 315.891 206.865 315.466 206.017 315.042C205.168 314.618 204.319 314.194 203.471 313.77C202.198 313.345 201.349 312.496 200.501 312.496V312.921ZM219.595 338.804C217.049 339.228 214.503 339.229 211.957 339.229H211.108C210.26 339.229 209.412 339.229 208.987 340.077V342.623C208.563 346.442 208.139 350.685 208.139 354.504V357.474C208.139 357.898 208.138 358.747 208.562 359.596H209.411C212.381 359.596 215.352 360.02 218.322 359.596H222.565C223.838 359.596 225.111 359.171 226.384 358.747C226.808 357.899 226.809 357.474 226.809 357.05V353.655C226.809 351.958 226.384 350.685 226.384 348.987C225.535 346.017 225.111 343.047 224.263 340.077C223.838 339.653 223.838 339.228 223.838 338.804H219.595ZM360.908 349.832C360.492 350.248 360.077 350.257 360.061 350.257C358.788 351.105 357.09 351.954 355.817 352.803C354.969 353.651 353.271 354.075 351.998 354.075C349.877 354.499 347.755 354.075 345.634 354.075C343.947 353.653 340.583 353.232 340.542 353.227L340.117 352.378V358.743C340.966 358.319 341.814 357.47 342.663 357.47C348.179 358.318 354.12 359.167 359.636 359.592C360.484 357.046 360.908 351.529 360.908 349.832ZM423.283 345.165C424.132 348.984 424.98 352.379 425.829 356.197C425.829 356.621 426.253 356.622 426.253 357.046V341.346H423.283V345.165ZM407.159 352.378C406.778 352.505 406.322 352.71 405.869 352.932V356.614C406.299 356.344 406.729 356.059 407.159 355.772V352.378ZM320.175 350.257C320.599 351.105 320.599 351.954 320.599 352.803C320.599 354.075 320.599 354.075 321.872 354.075C323.145 354.075 324.418 354.076 325.267 355.349V351.002C323.708 350.616 322.12 350.257 320.175 350.257ZM360.061 329.041C359.212 328.617 357.938 329.041 357.09 329.465C351.998 332.435 346.906 335.83 341.814 338.8C341.814 339.222 340.974 339.645 340.966 339.648V340.073C340.542 344.316 340.542 348.135 340.542 351.954C340.964 352.376 341.806 352.378 341.814 352.378C343.512 352.378 345.634 353.227 347.331 353.227C349.028 353.651 351.15 353.227 352.847 353.227C353.695 352.802 354.544 352.378 354.969 352.378C357.09 351.529 358.787 350.256 360.908 348.983C362.181 348.135 362.605 347.71 362.605 346.438C362.605 343.892 363.03 341.77 363.454 339.225C363.878 336.254 363.879 333.708 363.879 330.738V329.465C362.606 329.041 361.333 329.041 360.061 329.041ZM338.845 340.922C337.996 341.346 337.147 342.194 336.723 342.194C333.753 343.892 333.753 343.892 333.753 347.286V350.257C334.601 350.681 335.026 350.681 335.45 350.681C336.299 351.105 337.571 351.105 338.42 351.105C338.844 349.408 338.845 343.468 338.845 340.922ZM332.056 345.589C330.359 346.437 329.085 347.286 327.812 348.135V349.408C329.085 349.832 330.358 349.832 331.631 349.832C332.055 348.559 332.056 347.286 332.056 345.589ZM458.077 345.589C461.047 346.437 464.017 347.287 466.987 347.711V331.587C466.987 329.89 467.412 328.616 467.412 326.919V325.222L469.109 323.524C469.958 323.1 470.807 322.676 470.807 321.827C470.39 321.41 469.973 321.403 469.958 321.403C466.139 320.555 462.744 319.706 458.926 318.857H458.077V345.589ZM447.045 335.83C446.196 334.982 445.772 334.557 444.499 334.981C444.075 335.406 443.226 336.254 442.377 336.254C440.255 337.103 437.709 338.376 435.588 339.648C433.891 340.497 431.769 341.346 429.647 341.346H427.95V342.619L427.526 343.468V347.286H428.799C430.496 346.438 432.618 345.589 434.739 344.74C436.012 344.316 437.285 343.892 438.982 343.892C441.104 343.467 442.801 343.892 444.923 343.892H447.469V337.103C447.469 336.678 447.045 336.254 447.045 335.83ZM443.226 315.463C440.68 315.039 437.71 315.038 435.164 316.735C434.315 317.16 433.467 317.585 432.618 318.009C430.921 318.857 429.648 320.13 429.224 321.827C428.375 322.676 428.375 324.798 428.375 324.798H429.224V340.073C431.769 340.073 433.043 340.073 435.164 338.8C438.558 337.103 441.528 335.405 444.923 333.708C446.196 333.708 447.469 332.859 448.742 333.708C450.015 335.405 450.439 337.103 450.439 338.8V344.316C451.288 344.741 452.561 345.165 453.409 345.165C454.682 345.165 455.531 345.589 456.804 345.165V318.433H455.955C451.712 317.16 447.469 316.312 443.226 315.463ZM627.37 335.828C626.522 336.252 625.673 337.102 624.824 337.102V343.042C625.218 343.436 625.247 343.464 625.249 343.466C626.098 343.89 626.522 343.891 627.37 343.891H632.887L631.613 343.466C632.462 343.042 633.735 343.042 634.584 343.042H635.008C634.583 342.618 633.735 342.193 633.735 341.769L632.038 340.071C631.189 339.223 629.916 337.95 629.067 337.102C628.643 336.677 628.219 335.828 627.795 335.828H627.37ZM211.533 319.285C211.109 323.104 210.685 326.499 210.685 329.894V336.258C211.102 336.676 211.108 337.094 211.108 337.106H219.595C220.868 337.106 222.141 336.682 222.989 336.258C223.41 335.837 223.414 335 223.414 334.985C222.99 332.864 221.292 326.074 220.443 323.528C218.746 322.255 214.503 320.134 214.503 320.134L214.079 319.285C213.231 318.437 212.382 318.437 211.533 318.437V319.285ZM363.879 325.646C363.03 326.495 362.181 326.495 361.757 327.344H363.879V325.646ZM124.973 259.457C124.548 259.881 124.124 260.306 124.124 261.154C122.002 270.065 119.457 278.551 116.911 287.037C115.214 293.826 113.092 300.191 111.395 306.98C110.97 308.253 110.546 310.375 110.546 310.375L110.122 310.799V312.496C111.395 313.769 113.092 314.193 114.789 315.042C115.213 314.618 115.214 314.193 115.214 314.193C116.487 309.95 117.335 306.131 118.608 302.312C120.73 295.524 122.427 288.31 124.549 281.521C126.246 276.006 127.519 270.49 129.216 264.974C130.064 264.125 130.064 263.276 130.064 262.003C128.792 260.73 127.094 259.881 125.821 259.457H124.973ZM472.928 261.575C472.503 262.848 471.23 264.545 471.23 264.545L470.807 264.121V266.242C471.231 268.364 472.08 270.909 472.504 273.455C473.777 278.547 474.625 283.215 475.898 288.307C477.171 294.247 478.444 299.763 479.717 305.703C480.141 308.249 480.566 310.795 480.99 313.341C481.414 313.765 481.415 314.614 481.839 315.038C482.263 314.614 483.112 313.766 483.536 313.766C484.809 312.917 485.657 311.644 485.657 310.371C485.657 308.674 486.506 306.977 486.506 305.279V303.157C484.809 298.066 483.536 292.549 482.263 287.033C480.99 281.942 479.717 276.426 478.444 270.91C478.02 268.789 477.595 267.091 476.322 265.394C475.898 264.545 475.474 263.696 475.474 262.848C475.474 261.999 474.626 261.576 474.201 261.575H472.928ZM214.503 298.494C213.67 298.494 213.655 298.903 213.654 298.918V302.312L214.079 301.889C214.503 302.737 214.928 303.161 215.776 303.161C215.352 301.464 214.503 300.191 214.503 298.494ZM204.967 258.216C202.488 258.608 200.021 258.631 197.955 259.457C197.106 259.881 197.106 260.306 197.106 260.73V262.428C197.531 265.398 197.955 268.368 197.955 271.338V287.886C197.955 290.007 198.804 292.129 198.804 294.251C199.652 294.675 200.076 295.523 200.925 295.523C203.895 297.221 206.865 298.918 210.26 300.615C210.684 300.191 210.685 299.767 210.685 299.767C211.533 295.524 211.533 291.28 211.533 287.037C211.533 285.764 211.108 284.067 211.108 282.794C208.987 275.581 207.29 267.943 205.593 260.306C205.593 259.609 205.304 258.913 204.967 258.216ZM233.173 272.187C231.9 271.338 231.9 271.338 230.627 272.187V273.035C231.051 275.157 231.9 277.703 232.324 279.824L232.749 280.248C232.749 280.668 233.164 280.673 233.173 280.673V272.187ZM492.021 267.516C491.173 267.94 490.324 269.213 490.324 269.213V268.788C489.476 269.637 488.627 270.485 488.627 271.334C488.203 272.182 489.051 273.455 489.052 274.304C489.476 276.001 489.901 277.274 490.749 278.547C491.173 274.728 492.021 271.334 492.021 267.516ZM230.627 253.941C228.93 254.79 227.657 254.366 226.384 254.79V255.639C226.808 257.337 228.93 267.095 229.778 268.792C230.627 269.216 232.749 268.792 232.749 268.792C233.597 268.368 233.598 267.519 233.598 267.095C234.022 264.125 234.446 260.73 234.446 257.336V254.79C234.05 253.998 234.023 253.945 234.021 253.941H230.627ZM397.808 150.832C396.535 155.499 395.686 159.743 394.413 163.986C393.565 166.108 393.14 168.229 392.291 170.351C391.442 172.048 390.594 174.17 390.594 176.716V199.204C390.594 202.599 390.169 205.993 390.594 209.388V222.966C390.594 225.512 390.169 227.634 390.594 230.18V260.972C393.872 258.718 397.134 256.478 400.354 254.241V246.304C400.354 240.788 399.929 235.695 399.929 230.604V205.993C399.504 202.599 399.929 199.204 399.505 195.81V190.718C399.081 187.323 399.08 183.504 399.08 179.686V169.078C398.656 165.259 398.656 161.016 398.656 156.772V151.681C398.656 151.257 398.232 150.832 397.808 150.832ZM204.928 258.136C204.867 258.011 204.807 257.885 204.744 257.76H203.047L204.928 258.136ZM-50.8428 132.666C-50.3928 132.887 -49.7664 133.515 -49.4209 133.86V135.558C-50.2695 138.528 -51.1182 141.498 -51.9668 144.468C-54.5127 153.803 -57.4824 163.138 -60.0283 172.473C-62.9985 183.505 -66.3931 194.537 -69.3633 205.569C-71.0605 211.085 -72.7579 216.601 -74.4551 222.117C-76.5767 228.906 -78.2739 235.696 -80.3955 242.909C-81.98 247.663 -83.1961 252.785 -84.7314 257.588C-84.8421 257.647 -84.9528 257.704 -85.0635 257.76H-85.9121V256.487C-85.0635 253.941 -84.6387 251.819 -83.79 249.273C-81.6685 241.636 -79.5473 234.423 -77.4258 226.785C-75.7285 219.996 -73.6064 213.631 -71.9092 206.842C-70.2119 201.326 -68.5151 195.385 -67.2422 189.869C-65.5449 183.505 -63.8476 177.564 -62.1504 171.199C-60.0289 164.41 -58.3315 157.621 -56.21 150.832C-54.937 146.589 -53.6635 141.922 -52.3906 137.679C-51.8337 136.008 -51.2797 134.337 -50.8428 132.666ZM142.794 219.147C140.672 219.147 138.551 219.571 136.854 220.42C136.461 221.205 136.432 221.264 136.43 221.269C134.732 227.209 133.035 233.574 131.338 239.515V240.363C132.611 241.636 133.884 242.485 135.581 242.909C136.419 242.909 136.43 242.08 136.43 242.061C136.854 240.363 137.703 238.241 138.127 236.544C139.4 231.028 141.097 225.936 142.37 220.845V219.571L142.794 219.147ZM316.339 235.695C316.763 236.12 317.188 236.12 317.188 236.12H317.611V234.847L316.763 234.423V223.814C316.338 218.723 316.339 214.055 316.339 209.388V235.695ZM163.161 218.723V218.299C161.888 221.694 158.918 232.301 158.918 234.423H160.615C162.312 233.999 164.01 233.574 165.707 233.574C166.98 233.15 168.253 233.149 169.102 233.149C169.95 232.725 169.95 231.876 169.95 231.452V222.542C170.375 221.693 170.374 220.42 169.525 219.571H169.102L164.01 217.025L163.161 218.723ZM233.173 192.415C230.627 191.142 228.081 190.718 225.111 191.143C221.293 191.567 217.049 192.416 213.23 192.84H211.957V193.688C214.079 203.872 217.049 214.48 219.595 224.663C220.019 224.663 220.443 225.087 220.443 225.512C223.414 225.936 226.384 224.663 229.354 224.663C231.052 225.512 232.749 226.361 234.021 227.634C235.719 228.907 237.84 230.179 239.962 231.452V211.51C240.386 208.115 240.387 204.296 240.387 200.478V199.204C239.962 198.78 239.538 197.931 239.113 197.507C237.416 195.81 236.143 194.537 234.446 193.264C234.022 192.839 233.597 192.415 233.173 192.415ZM193.287 220.845C192.863 221.693 192.863 222.542 192.863 223.814C192.439 224.239 192.015 224.664 192.015 225.088C192.015 226.361 192.015 226.785 192.863 229.755H197.106C197.955 229.331 197.955 228.907 197.955 228.482C197.531 226.361 197.106 223.815 196.258 221.693L195.833 222.117C195.409 221.693 194.56 221.269 194.136 220.845H193.287ZM113.092 225.512C110.97 225.512 109.273 226.361 107.576 226.785V227.209C108.849 228.058 110.122 228.907 111.395 229.331C112.243 229.331 112.668 228.907 112.668 228.482C113.092 227.634 113.092 225.512 113.092 225.512ZM352.83 164.835C350.284 164.411 347.738 164.834 345.616 166.107C341.797 167.38 337.554 169.078 333.735 170.351C332.462 170.775 331.189 171.624 329.492 172.473V204.296C329.917 208.539 329.917 212.358 329.917 216.602V227.634H330.766C332.887 224.239 335.009 221.269 336.706 217.874C340.1 212.358 343.071 206.842 346.041 200.901C350.708 192.415 354.527 183.505 357.922 174.17C358.345 172.479 360.031 168.26 360.043 168.229L361.74 167.805C362.164 166.956 362.165 166.108 362.165 165.684C361.741 164.835 361.316 164.835 360.892 164.835H352.83ZM166.556 214.056C166.136 214.056 165.716 214.47 165.707 214.479C167.391 216.163 169.492 216.177 169.525 216.177V214.056H166.556ZM192.438 208.115C191.59 208.115 191.165 208.963 190.741 209.388V210.661C191.59 211.51 192.439 211.934 193.287 212.358V211.934C193.287 210.661 192.439 209.388 192.438 208.115ZM315.914 182.656C316.338 190.718 316.339 199.204 316.339 207.69V172.896C315.915 172.048 316.338 171.2 315.914 169.927V182.656ZM247.6 205.145C247.6 205.145 248.024 205.569 248.448 205.993C248.448 205.993 248.448 206.418 248.448 206.842C248.448 206.842 248.449 206.842 248.024 207.267C247.825 207.267 247.603 207.313 247.362 207.379C247.436 206.616 247.485 205.852 247.52 205.089C247.547 205.108 247.573 205.127 247.6 205.145ZM189.893 194.537C189.468 197.083 189.469 197.083 190.317 198.355L190.741 197.932C190.317 197.083 189.893 195.81 189.893 194.537ZM93.1494 174.594C92.7323 175.011 92.7247 175.428 92.7246 175.442V194.961H93.5732C97.8164 193.688 102.484 192.84 106.728 191.991H108C108.424 191.567 109.273 191.142 109.273 190.294C109.698 188.172 110.122 185.626 110.122 183.08V182.231H109.273C105.455 181.807 102.484 180.535 99.5137 178.413C97.8165 177.14 96.5439 176.291 94.8467 175.442H93.998L93.1494 174.594ZM125.397 179.686C122.003 180.534 118.184 180.959 114.789 181.808C114.369 181.808 113.948 182.223 113.94 182.231L113.517 183.08C113.119 183.874 113.093 183.925 113.092 183.929V184.354C112.668 186.475 112.668 188.596 112.668 190.718H113.94C116.911 190.293 119.457 189.869 122.427 189.021C122.851 188.596 123.276 188.172 123.7 188.172C124.973 185.202 125.822 182.656 126.246 179.686H125.397ZM478.444 152.525C478.023 152.947 477.602 153.787 477.596 153.799C477.171 154.647 477.171 155.072 477.171 155.92C476.747 159.314 475.898 163.134 475.474 166.528C474.625 170.771 473.777 174.59 473.353 178.833L472.928 179.258V181.804H475.05C475.898 182.228 476.322 182.228 477.171 182.228C479.292 182.228 480.565 181.804 480.565 180.106C481.838 175.439 482.687 171.195 483.96 166.952V164.831C482.687 161.012 480.99 157.193 479.293 153.799C478.869 153.375 478.444 153.374 478.444 152.525ZM112.243 156.772C110.546 157.197 109.273 157.621 108 157.621C105.03 158.045 101.635 158.894 98.665 159.318L99.0898 158.47C97.817 158.894 96.9682 158.895 95.6953 159.743C95.2711 161.016 95.2705 161.864 95.2705 162.713C94.8462 164.41 94.8467 166.108 94.8467 167.805C94.8467 169.078 94.4224 170.351 94.8467 171.624C95.2709 172.048 95.695 172.896 96.1191 172.896C98.665 174.594 100.787 176.292 103.333 177.564C105.454 178.837 107.576 179.262 110.122 179.262H110.971C111.395 178.837 111.395 177.988 111.395 177.988C111.819 174.594 112.668 171.624 112.668 168.229C112.668 165.259 113.517 162.713 113.517 159.743V157.197C113.092 156.773 112.667 156.772 112.243 156.772ZM133.459 144.043C132.61 144.467 131.762 145.316 130.913 145.316C130.064 144.892 129.216 144.892 128.367 144.892C125.397 145.316 122.851 146.165 119.881 147.014C119.038 147.014 118.195 147.432 118.184 147.438V147.014C117.335 147.862 117.335 148.287 117.335 148.711C116.911 152.954 116.062 156.773 116.062 160.592C116.062 163.138 115.214 165.259 115.214 167.805C114.79 170.775 114.365 173.321 114.365 176.291V178.837C116.487 178.837 120.73 177.988 127.519 176.291L127.943 175.442C128.792 174.594 128.792 174.17 128.792 173.321L133.884 155.5C134.732 153.803 134.732 152.105 134.732 150.408V144.468C134.308 144.043 133.459 144.043 133.459 144.043ZM246.327 167.805C248.024 168.653 249.297 169.927 250.57 171.624V172.048C249.263 172.702 247.954 173.355 246.646 174.009C246.115 173.547 245.587 173.086 245.066 172.624C245.102 170.889 245.237 169.526 245.767 167.805H246.327ZM91.876 161.502C89.0852 161.907 86.6421 162.33 83.8145 163.138C83.3901 163.138 82.541 163.562 82.541 163.562V164.41C82.9599 164.829 83.3791 164.835 83.3896 164.835C85.5111 166.532 88.0572 167.805 90.1787 169.502H91.4521V169.078C91.8765 167.381 91.876 166.107 91.876 164.41V161.502ZM245.767 167.805H245.479L245.902 167.381C245.854 167.525 245.809 167.666 245.767 167.805ZM91.9043 161.498L92.3008 162.289V161.44C92.1679 161.459 92.0356 161.479 91.9043 161.498ZM96.9678 140.225C96.1192 142.346 96.1191 144.043 96.1191 145.74C95.6949 147.862 95.6953 149.559 95.6953 151.681V156.772H96.5439C100.787 155.924 104.606 155.075 108.849 154.227C109.697 153.802 110.546 153.803 111.395 153.803C112.239 153.803 113.925 152.962 113.94 152.954V152.529C114.365 151.256 114.365 149.559 114.365 148.286C113.517 147.862 113.092 147.862 112.668 147.862C109.273 147.862 106.303 147.013 103.757 144.892C102.06 143.619 99.9383 142.346 98.2412 141.073C97.8169 140.649 97.3921 140.225 96.9678 140.225ZM105.454 124.525C101.635 124.101 98.2407 124.101 94.4219 124.949H93.1494C91.0278 125.374 88.9058 125.798 86.7842 126.223C86.3598 126.223 85.5115 127.071 84.6631 127.071V127.92C85.0872 128.344 85.5114 129.192 85.9355 129.192C88.4814 130.89 90.6035 132.587 93.1494 134.284C96.9682 137.254 100.363 139.8 104.182 142.346C104.606 142.77 105.455 143.195 105.879 143.619C107.152 144.468 108.425 144.892 110.122 144.892H113.94C115.213 143.619 115.214 142.77 115.214 141.497C115.638 137.678 116.486 134.284 116.486 130.89V125.374H116.062C114.79 124.95 113.092 124.949 111.819 124.949C109.698 124.949 107.576 124.525 105.454 124.525ZM120.306 126.223C119.883 126.645 119.881 127.489 119.881 127.495C119.457 128.768 119.457 130.042 119.457 131.314C119.033 134.284 118.184 137.678 118.184 140.648L118.608 139.376V143.194C121.154 143.194 123.7 142.346 126.246 141.497C128.792 140.649 130.914 140.225 133.884 139.376C133.884 138.952 134.732 138.527 135.156 138.103C137.278 136.83 139.824 137.254 142.37 135.981C142.794 135.981 143.219 135.133 143.643 134.709C144.067 134.709 144.491 133.86 145.34 133.86C145.764 131.739 144.492 129.617 144.067 127.495C141.522 127.071 138.975 126.647 136.43 126.646H130.489C128.792 126.222 127.519 126.223 126.246 126.223H120.306ZM372.772 104.158C370.651 104.158 365.559 104.582 363.438 104.582C362.589 105.855 361.74 107.128 361.74 108.825C360.043 114.341 358.771 119.858 357.073 125.374C356.649 127.495 355.8 129.193 355.376 131.314V133.436C356.225 134.284 357.073 134.284 357.922 134.284C360.043 134.709 362.589 135.557 364.711 135.981C365.984 136.406 367.257 136.406 368.105 136.406C369.378 135.982 369.378 135.557 369.378 135.133C369.802 133.436 370.651 131.314 370.651 129.617C371.5 126.223 371.924 123.252 372.349 120.282C372.773 117.736 373.197 114.766 373.621 112.22L373.197 112.645C373.622 110.099 374.046 107.552 374.046 104.582C373.197 104.158 372.772 104.158 372.772 104.158ZM371.075 43.4805C370.655 43.4806 370.234 44.3144 370.227 44.3291C365.983 50.6938 361.74 57.0591 357.497 63.4238C357.073 63.8479 356.649 63.8481 356.648 64.6963C357.073 65.1206 357.497 65.9697 357.497 65.9697C358.346 66.394 358.771 66.8184 359.619 66.8184C364.286 68.0913 368.954 69.3638 373.621 70.6367C374.045 70.6367 374.895 70.2129 374.895 70.2129V62.999C374.894 60.4533 374.046 57.4833 374.046 54.9375C373.622 51.543 372.773 47.7236 372.349 44.3291L371.924 43.4805H371.075ZM365.135 31.1758C364.003 30.3272 362.165 30.3272 359.619 31.1758C359.202 31.1758 359.194 31.5855 359.194 31.5996V32.0244C354.527 39.662 350.284 47.2999 345.616 54.9375C345.616 56.2103 346.041 57.0585 347.313 57.0586C348.162 57.0586 348.587 56.6343 348.587 56.21C349.86 54.0885 351.132 52.391 352.405 50.2695C356.224 44.3292 360.043 38.8134 363.862 32.873C364.284 32.4514 365.124 31.1923 365.135 31.1758Z" fill="white" fill-opacity="0.1"/>
</g>
<defs>
<clipPath id="clip0_1_744">
<rect width="850" height="503.772" fill="white"/>
</clipPath>
</defs>
</svg>
