<svg width="220" height="51" viewBox="0 0 220 51" fill="none" xmlns="http://www.w3.org/2000/svg">
<path d="M23.9719 16.6807L23.9385 26.7373L25.5887 26.7428L25.6221 16.6861L23.9719 16.6807Z" fill="white"/>
<path d="M47.6119 15.3269C46.3649 12.3395 44.579 9.6571 42.3052 7.35318C40.03 5.04833 37.3801 3.23863 34.429 1.97414C31.3722 0.66417 28.1255 0 24.7789 0C21.4324 0 18.1856 0.66417 15.1288 1.97414C12.1777 3.23863 9.52781 5.04833 7.25265 7.35318C4.97841 9.6571 3.19295 12.34 1.94593 15.3269C0.654775 18.419 0 21.7031 0 25.0878C0 28.4725 0.654775 31.7566 1.94593 34.8487C3.19295 37.8361 4.97887 40.5185 7.25265 42.8224C9.52781 45.1273 12.1777 46.937 15.1288 48.2015C18.1856 49.5114 21.4324 50.1756 24.7789 50.1756C28.1255 50.1756 31.3722 49.5114 34.429 48.2015C37.3801 46.937 40.03 45.1273 42.3052 42.8224C44.5794 40.5185 46.3649 37.8356 47.6119 34.8487C48.9031 31.7566 49.5579 28.4725 49.5579 25.0878C49.5579 21.7031 48.9031 18.419 47.6119 15.3269ZM30.3891 47.4735C32.3355 45.6527 33.4607 44.1076 35.3027 41.1638L34.7049 39.3725C32.6652 42.6332 30.2351 45.8218 27.3884 48.0315C26.7943 48.1004 26.1933 48.1459 25.5868 48.1675L25.6231 31.9794L23.9729 31.9757L23.9365 48.1666C23.6188 48.1546 23.3034 48.1362 22.9893 48.1114C19.6354 45.5117 16.6439 42.8619 14.749 39.4184L14.0133 41.3476C15.8682 44.0764 17.5764 45.7859 19.8235 47.6315C16.7611 46.9402 13.9292 45.6224 11.4655 43.8178L24.8148 12.0451L38.3025 43.5413L38.6616 43.3878C36.2412 45.2788 33.4368 46.688 30.3891 47.4735ZM39.8434 42.3989L24.7978 7.26453L9.949 42.6061C5.08279 38.3675 1.99559 32.0864 1.99559 25.0878C1.99559 13.3918 10.6171 3.69933 21.7566 2.19645C18.5521 4.49164 15.8411 7.4083 13.8206 10.7572C11.1946 15.1096 9.80876 20.0923 9.81151 25.1659C9.81335 28.0821 10.4622 31.4709 11.3556 34.2286L12.3672 32.0239C11.5266 29.4302 11.4636 27.9089 11.4618 25.165C11.4563 16.1206 16.2126 7.63428 23.9651 2.69297L23.9352 6.34131L25.5854 6.35509L25.6153 2.7242C33.3443 7.66046 38.0905 16.1243 38.0961 25.1489C38.0979 27.8832 38.3044 29.1165 37.473 31.7024L38.417 33.671C39.3008 30.9216 39.7482 28.0541 39.7463 25.1475C39.7431 20.0739 38.3508 15.0931 35.7197 10.7438C33.6952 7.39727 30.9804 4.48384 27.7732 2.19277C38.926 3.68325 47.5623 13.3826 47.5623 25.0883C47.5623 31.9734 44.5744 38.1645 39.8438 42.3994L39.8434 42.3989Z" fill="white"/>
<path d="M19.6464 28.1196L18.8882 30.2325H30.5675L29.7334 28.1196H19.6464Z" fill="white"/>
<g clip-path="url(#clip0_106_420)">
<path d="M77.5964 12.1338H74.4289L66.3694 35.587L63.1929 36.0564V37.8703H71.7899V36.0564L68.4089 35.5613L70.2697 29.9683H78.6699L80.5353 35.6734L77.1331 36.1003V37.8718H88.3086V36.1003L85.6635 35.7854L77.5964 12.1338ZM70.942 27.95L74.5077 17.2363L78.0113 27.95H70.942Z" fill="white"/>
<path d="M107.518 12.1338H104.351L96.2913 35.587L93.1147 36.0564V37.8703H101.712V36.0564L98.3308 35.5613L100.192 29.9683H108.592L110.457 35.6734L107.055 36.1003V37.8718H118.23V36.1003L115.585 35.7854L107.518 12.1338ZM100.864 27.95L104.43 17.2363L107.933 27.95H100.864Z" fill="white"/>
<path d="M138.862 12.2563H134.859V14.1202L138.089 14.5487L132.272 31.7578L126.351 14.4836L129.843 14.1202V12.2563H125.587H120.222H118.384V14.0702L120.989 14.3534L129.64 38.0413H132.318L140.382 14.5229L143.495 14.0702V12.2563H141.161H138.862Z" fill="white"/>
<path d="M152.293 12.2563H149.095V14.0702L152.344 14.4245C152.408 17.6889 152.41 20.9699 152.41 24.2267V25.9028C152.41 29.2096 152.41 32.4907 152.346 35.7036L149.097 36.0578V37.8717H160.743V36.0578L157.48 35.7066C157.417 32.4407 157.415 29.1566 157.415 25.8892V24.2283C157.415 20.92 157.415 17.6389 157.479 14.4245L160.743 14.0733V12.2563H152.294H152.293Z" fill="white"/>
<path d="M184.574 35.8262H175.975C175.91 32.5573 175.909 29.2369 175.909 25.7378H180.919L181.39 29.0658H183.382V20.3401H181.39L180.889 23.7059H175.907C175.907 20.5369 175.912 17.3952 175.974 14.314H183.803L184.616 19.0152H187.318L187.046 12.2563H167.587V14.0702L170.837 14.4245C170.9 17.6889 170.902 20.9699 170.902 24.2267V25.9028C170.902 29.2096 170.902 32.4907 170.838 35.7036L167.589 36.0578V37.8717H187.82L188.091 31.1128H185.39L184.575 35.8277L184.574 35.8262Z" fill="white"/>
<path d="M220 12.2563H216.717H214.504H210.266V14.0702L214.504 14.5684V29.7153L201.8 12.2563H194.521V14.0839L197.223 14.37L197.68 14.9969V35.59L194.398 36.0563V37.8702H197.68H199.894H204.132V36.0563L199.894 35.534V18.0402L214.448 38.0413H216.717V32.7571V14.5578L220 14.0702V12.2563Z" fill="white"/>
</g>
<defs>
<clipPath id="clip0_106_420">
<rect width="156.807" height="25.9076" fill="white" transform="translate(63.1929 12.1338)"/>
</clipPath>
</defs>
</svg>
