<svg width="66" height="66" viewBox="0 0 66 66" fill="none" xmlns="http://www.w3.org/2000/svg">
<g clip-path="url(#clip0_109_608)">
<path d="M0 6C0 2.68629 2.68629 0 6 0H66V66H6C2.68629 66 0 63.3137 0 60V6Z" fill="#272C3A"/>
</g>
<g clip-path="url(#clip1_109_608)">
<path d="M33.0209 50.9811C23.1228 50.9811 15.0679 42.9263 15.0679 33.0281C15.0679 23.13 23.1228 15.0751 33.0209 15.0751C42.919 15.0751 50.9739 23.13 50.9739 33.0281C50.9739 42.9263 42.919 50.9811 33.0209 50.9811ZM33.0209 16.9633C24.1643 16.9633 16.9486 24.1715 16.9486 33.0356C16.9486 41.8997 24.1568 49.1079 33.0209 49.1079C41.885 49.1079 49.0932 41.8997 49.0932 33.0356C49.0932 24.1715 41.885 16.9633 33.0209 16.9633Z" fill="#8CD3EE"/>
<path d="M33.01 43.9977C30.1927 43.9977 27.5177 42.9337 25.4647 40.9855C23.3367 38.9699 22.1303 36.2425 22.0479 33.3128C21.973 30.383 23.037 27.6032 25.0526 25.4752C27.0681 23.3472 29.7956 22.1408 32.7253 22.0584C35.655 21.961 38.4349 23.0475 40.5629 25.0631C42.6909 27.0787 43.8972 29.8061 43.9797 32.7358C44.0546 35.6655 42.9906 38.4454 40.9675 40.5734C38.9519 42.7014 36.2245 43.9077 33.3023 43.9902C33.2048 43.9902 33.1074 43.9902 33.01 43.9902V43.9977ZM33.025 23.9466C32.9426 23.9466 32.8602 23.9466 32.7852 23.9466C30.3575 24.014 28.1022 25.0181 26.4312 26.7714C24.7603 28.5323 23.8762 30.8326 23.9361 33.2603C24.0035 35.688 25.0076 37.9434 26.7609 39.6143C28.5218 41.2852 30.8221 42.1619 33.2498 42.1094C38.2551 41.9746 42.2263 37.801 42.0914 32.7883C42.024 30.3605 41.02 28.1052 39.2666 26.4343C37.5657 24.8233 35.3553 23.9391 33.0175 23.9391L33.025 23.9466Z" fill="#8CD3EE"/>
<path d="M33.0217 38.925C29.8447 38.925 27.2147 36.3774 27.1323 33.1854C27.0499 29.9335 29.6199 27.221 32.8719 27.1386C34.4454 27.0862 35.944 27.6706 37.0829 28.7571C38.2218 29.8436 38.8737 31.3047 38.9187 32.8782C39.0011 36.1301 36.431 38.8426 33.1791 38.925C33.1266 38.925 33.0742 38.925 33.0217 38.925ZM33.0292 29.0193C33.0292 29.0193 32.9543 29.0193 32.9243 29.0193C30.7139 29.0793 28.9606 30.9225 29.0205 33.133C29.0805 35.3059 30.8638 37.0368 33.0292 37.0368C33.0667 37.0368 33.0967 37.0368 33.1341 37.0368C34.2056 37.0068 35.2022 36.5647 35.9365 35.7855C36.6708 35.0062 37.0679 33.9872 37.0379 32.9157C37.008 31.8442 36.5659 30.8476 35.7866 30.1133C35.0373 29.4015 34.0558 29.0119 33.0292 29.0119V29.0193Z" fill="#8CD3EE"/>
<path d="M32.3859 31.2972L19.3108 18.4993L19.3183 18.4469L19.3632 16.6036L16.7407 13.9811L16.6583 17.2105H16.6433L13.4663 17.3529L15.9839 19.878L17.977 19.7881L18.1794 19.7806L31.1871 32.5036L30.0706 33.6125L35.4655 35.4858L33.4949 30.1883L32.3859 31.2972Z" fill="#8CD3EE"/>
</g>
<defs>
<clipPath id="clip0_109_608">
<rect width="66" height="66" rx="33" fill="white"/>
</clipPath>
<clipPath id="clip1_109_608">
<rect width="37.7057" height="37.71" fill="white" transform="translate(14.0015 13.9999)"/>
</clipPath>
</defs>
</svg>
