<svg width="31" height="31" viewBox="0 0 31 31" fill="none" xmlns="http://www.w3.org/2000/svg">
<path d="M8.05816 11.47H22.8452C23.3722 11.47 23.8682 11.067 23.8682 10.447C23.8682 9.827 23.4652 9.424 22.8452 9.424H8.05816C7.53116 9.424 7.03516 9.827 7.03516 10.447C7.03516 11.067 7.53116 11.47 8.05816 11.47Z" fill="#12305E"/>
<path d="M22.9382 14.477H8.05816C7.53116 14.477 7.03516 14.88 7.03516 15.5C7.03516 16.12 7.43816 16.523 8.05816 16.523H22.8452C23.3722 16.523 23.8682 16.12 23.8682 15.5C23.8682 14.88 23.4652 14.477 22.9382 14.477Z" fill="#12305E"/>
<path d="M22.9382 19.53H8.05816C7.53116 19.53 7.03516 19.933 7.03516 20.553C7.03516 21.173 7.43816 21.576 8.05816 21.576H22.8452C23.3722 21.576 23.8682 21.173 23.8682 20.553C23.8682 19.933 23.4652 19.53 22.9382 19.53Z" fill="#12305E"/>
<path d="M15.5 0C6.913 0 0 6.913 0 15.5C0 24.087 6.913 31 15.5 31C24.087 31 31 24.087 31 15.5C31 6.913 24.087 0 15.5 0ZM15.5 29.047C8.06 29.047 1.953 22.94 1.953 15.5C1.953 8.06 8.06 1.953 15.5 1.953C22.94 1.953 29.047 8.06 29.047 15.5C29.047 22.94 22.94 29.047 15.5 29.047Z" fill="#12305E"/>
</svg>
