<svg width="66" height="66" viewBox="0 0 66 66" fill="none" xmlns="http://www.w3.org/2000/svg">
<g clip-path="url(#clip0_109_624)">
<path d="M0 6C0 2.68629 2.68629 0 6 0H66V66H6C2.68629 66 0 63.3137 0 60V6Z" fill="#272C3A"/>
</g>
<g clip-path="url(#clip1_109_624)">
<path d="M32.8701 42.9936H32.8227C29.0267 42.9831 24.9461 41.3962 21.0131 38.4069C18.066 36.1662 16.2576 33.9625 16.1838 33.8676L15.8569 33.4669L16.1627 33.0557C16.2365 32.9555 18.0607 30.5303 21.0236 28.0788C24.9672 24.81 29.0584 23.0861 32.849 23.0861H32.8912C36.6977 23.0966 40.7889 24.8522 44.7271 28.1631C47.669 30.6358 49.4773 33.0715 49.5511 33.1769L49.8569 33.5934L49.5301 33.9888C49.4562 34.0785 47.6268 36.2769 44.6692 38.4912C40.7309 41.4384 36.6555 42.9989 32.8754 42.9989L32.8701 42.9936ZM17.5493 33.4353C19.0677 35.1276 25.3942 41.6492 32.8279 41.6756H32.8701C40.2986 41.6756 46.6409 35.2225 48.1646 33.5407C46.6831 31.706 40.3407 24.4305 32.8859 24.4041H32.8438C25.4048 24.4041 19.036 31.6111 17.5493 33.4353Z" fill="#8CD3EE"/>
<path d="M32.8817 26.2914C29.1543 26.2809 26.1228 29.2913 26.107 33.0187C26.0964 36.7461 29.1068 39.7775 32.8342 39.7933C36.5616 39.8039 39.5931 36.7935 39.6089 33.0661C39.6194 29.3387 36.6091 26.3072 32.8817 26.2914ZM32.8448 36.4403C30.9679 36.435 29.4495 34.9061 29.4548 33.0292C29.46 31.1523 30.989 29.6339 32.8658 29.6392C34.7427 29.6445 36.2611 31.1734 36.2558 33.0503C36.2505 34.9272 34.7216 36.4455 32.8448 36.4403Z" fill="#8CD3EE"/>
</g>
<circle cx="33.001" cy="32.85" r="18.3549" stroke="#8CD3EE" stroke-width="1.00027"/>
<defs>
<clipPath id="clip0_109_624">
<rect width="66" height="66" rx="33" fill="white"/>
</clipPath>
<clipPath id="clip1_109_624">
<rect width="34" height="19.9076" fill="white" transform="translate(15.8569 23.0861)"/>
</clipPath>
</defs>
</svg>
