<svg width="66" height="66" viewBox="0 0 66 66" fill="none" xmlns="http://www.w3.org/2000/svg">
<g clip-path="url(#clip0_1_851)">
<path d="M0 5.99707C0 2.68336 2.68629 -0.00292969 6 -0.00292969H66V65.9971H6C2.68629 65.9971 0 63.3108 0 59.9971V5.99707Z" fill="url(#paint0_linear_1_851)"/>
</g>
<path d="M45.3813 40.1718C45.1357 40.4178 44.8084 40.5532 44.4606 40.5532C44.1128 40.5532 43.7859 40.4178 43.54 40.1718L43.172 39.8039C43.1393 39.7683 43.1062 39.7331 43.0719 39.6987L39.8477 36.4746C39.52 36.1473 38.9895 36.1473 38.6623 36.4746C38.335 36.8019 38.335 37.3324 38.6623 37.6597L39.0838 38.0812C39.0985 38.0988 39.114 38.1164 39.1303 38.1328L41.9354 40.9379C42.1496 41.1767 42.2682 41.4814 42.2682 41.8045C42.2682 42.1523 42.1324 42.4795 41.8864 42.7255C41.6404 42.9711 41.3135 43.1069 40.9657 43.1069C40.6179 43.1069 40.2911 42.9711 40.0451 42.7255L36.8209 39.5009C36.8168 39.4968 36.8117 39.493 36.8071 39.4888L36.6818 39.3631C36.3546 39.0362 35.824 39.0358 35.4963 39.3631C35.1691 39.6904 35.1691 40.2213 35.4963 40.5486L35.5655 40.6177C35.1385 40.2628 34.6138 40.0579 34.0561 40.0306C34.0565 40.0109 34.0573 39.9921 34.0573 39.9724C34.0573 39.177 33.7477 38.429 33.1853 37.8667C32.6225 37.3039 31.8749 36.9942 31.0792 36.9942C30.8877 36.9942 30.6987 37.0126 30.5143 37.0478C30.438 36.4075 30.1556 35.7869 29.6653 35.2962C29.1025 34.7339 28.3549 34.4242 27.5592 34.4242C26.7638 34.4242 26.0158 34.7339 25.4534 35.2962L24.9983 35.7513C24.8563 35.3365 24.62 34.9467 24.2897 34.6165C23.727 34.0537 22.979 33.7441 22.1836 33.7441C21.3883 33.7441 20.6403 34.0537 20.0779 34.6165L19.0324 35.6616C18.9833 35.7107 18.9368 35.7618 18.8916 35.8137V28.1431H20.7911C20.9545 28.1431 21.1146 28.0953 21.2512 28.0056L24.8458 25.6451L29.2048 24.9328L25.8562 27.5992C25.6768 27.7425 25.5637 27.9532 25.5435 28.182C25.5234 28.4108 25.5984 28.638 25.7506 28.8102C27.2361 30.4893 31.3817 31.0597 34.0347 29.5117L37.8267 30.7755L42.1542 35.103C42.155 35.1039 42.1563 35.1051 42.1571 35.1064L45.3813 38.3305C45.6272 38.5765 45.763 38.9034 45.763 39.2512C45.763 39.599 45.6272 39.9259 45.3813 40.1718ZM38.1095 44.4294C37.9402 44.5987 37.7152 44.6917 37.4759 44.6917C37.2362 44.6917 37.0112 44.5987 36.8419 44.4294L36.2058 43.7933C36.3969 43.4291 36.4983 43.0222 36.4983 42.5998C36.4983 41.9939 36.2904 41.4206 35.9083 40.9601L38.1095 43.1617C38.2788 43.331 38.3723 43.5561 38.3723 43.7953C38.3723 44.035 38.2788 44.2601 38.1095 44.4294ZM31.9466 45.8466C31.7773 46.0159 31.5519 46.1093 31.3126 46.1093C31.0733 46.1093 30.8483 46.0159 30.679 45.8466C30.5097 45.6773 30.4162 45.4523 30.4162 45.2126C30.4162 45.0022 30.4887 44.8027 30.6211 44.6427L33.1853 42.0785C33.2222 42.0416 33.2578 42.0039 33.2922 41.9654C33.4615 41.7965 33.6865 41.7035 33.9257 41.7035C34.165 41.7035 34.3905 41.7965 34.5598 41.9658C34.7291 42.1351 34.8221 42.3601 34.8221 42.5998C34.8221 42.8391 34.7291 43.0641 34.5598 43.2334L31.9466 45.8466ZM26.9344 44.1176C26.6884 43.8716 26.553 43.5448 26.553 43.1969C26.553 42.8491 26.6884 42.5223 26.9344 42.2763L30.1585 39.0517C30.4045 38.8057 30.7314 38.6704 31.0792 38.6704C31.427 38.6704 31.7538 38.8057 31.9998 39.0517C32.2458 39.2977 32.3811 39.6246 32.3811 39.9724C32.3811 40.2917 32.2663 40.5921 32.0576 40.8297L29.4935 43.3939C29.46 43.4274 29.4273 43.4622 29.3958 43.4974L28.7757 44.1176C28.5297 44.3636 28.2028 44.4989 27.855 44.4989C27.5072 44.4989 27.1804 44.3636 26.9344 44.1176ZM23.4144 41.5472C23.1684 41.3012 23.033 40.9743 23.033 40.6265C23.033 40.2787 23.1684 39.9518 23.4144 39.7059L26.6385 36.4817C26.8845 36.2357 27.2113 36.1004 27.5592 36.1004C27.907 36.1004 28.2338 36.2357 28.4798 36.4817C28.9877 36.9892 28.9877 37.8155 28.4798 38.323L25.2556 41.5472C25.0097 41.7931 24.6828 41.9289 24.335 41.9289C23.9872 41.9289 23.6599 41.7931 23.4144 41.5472ZM20.2174 38.6884C19.9719 38.4424 19.8361 38.1156 19.8361 37.7673C19.8361 37.42 19.9719 37.0927 20.2179 36.8467L21.263 35.8016C21.5089 35.5556 21.8358 35.4203 22.1836 35.4203C22.5314 35.4203 22.8583 35.5556 23.1043 35.8016C23.6122 36.3095 23.6122 37.1354 23.1043 37.6429L22.0592 38.6884C21.8132 38.934 21.4863 39.0697 21.1385 39.0697C20.7907 39.0697 20.4638 38.934 20.2174 38.6884ZM46.3811 28.4599V36.9594L38.8722 29.4501C38.78 29.3583 38.6677 29.2888 38.5445 29.2477L34.1864 27.7953C33.9345 27.711 33.658 27.7513 33.4409 27.9038C31.846 29.0201 29.1972 28.8894 27.7636 28.2231L32.5907 24.3796L32.8756 24.3331L32.8765 24.3406L40.2592 23.6987L46.3811 28.4599ZM31.3126 47.7855C31.9998 47.7855 32.646 47.5177 33.1317 47.0317L35.1029 45.0609L35.6568 45.6144C36.1425 46.1005 36.7887 46.3679 37.4759 46.3679C38.1631 46.3679 38.8089 46.1005 39.295 45.6144C39.5908 45.3186 39.7987 44.9674 39.9202 44.5941C40.25 44.7177 40.6028 44.783 40.9657 44.783C41.7615 44.783 42.5095 44.4729 43.0719 43.9106C43.545 43.4375 43.8383 42.8332 43.92 42.1799C44.0965 42.2122 44.2775 42.2294 44.4606 42.2294C45.1717 42.2294 45.8443 41.9813 46.3811 41.527V42.5026H51.1302V40.8264H48.0573V24.5673H51.1302V22.8912H46.3811V26.3366L41.029 22.1737C40.8622 22.0438 40.6523 21.9818 40.4419 22.0003L32.9527 22.6515L32.9481 22.6225L31.8917 22.7952L31.8909 22.7944L31.8888 22.796L24.3995 24.0196C24.2835 24.0385 24.1728 24.0817 24.0748 24.1462L20.5405 26.4669H18.8916V22.8912H14.1421V24.5673H17.2154V40.8264H14.1421V42.5026H18.8916V39.7214C18.9368 39.7733 18.9833 39.8245 19.0324 39.8735C19.5951 40.4358 20.3427 40.7459 21.1385 40.7459C21.2127 40.7459 21.286 40.7422 21.3594 40.7367C21.3866 41.491 21.6925 42.1963 22.2289 42.7326C22.7917 43.295 23.5392 43.6051 24.335 43.6051C24.5261 43.6051 24.7147 43.5867 24.8982 43.5515C24.9762 44.2127 25.2712 44.8249 25.7489 45.3027C26.3112 45.8654 27.0592 46.1751 27.855 46.1751C28.2041 46.1751 28.5439 46.1152 28.8632 46.0008C28.9864 46.3855 29.1997 46.7379 29.4935 47.0317C29.9796 47.5177 30.6253 47.7855 31.3126 47.7855Z" fill="#12305E"/>
<defs>
<linearGradient id="paint0_linear_1_851" x1="3.20103e-07" y1="65.9972" x2="67.3832" y2="65.9972" gradientUnits="userSpaceOnUse">
<stop stop-color="#ABBAE0"/>
<stop offset="1" stop-color="#DCE2F2"/>
</linearGradient>
<clipPath id="clip0_1_851">
<rect y="-0.00292969" width="66" height="66" rx="33" fill="white"/>
</clipPath>
</defs>
</svg>
